<svg width="80" height="15" viewBox="0 0 80 15" fill="none" xmlns="http://www.w3.org/2000/svg">
<path d="M11.88 11H5.38L4.14 14H0.82L7.06 -9.53674e-07H10.26L16.52 14H13.12L11.88 11ZM10.86 8.54L8.64 3.18L6.42 8.54H10.86ZM28.3972 3.24V14H25.4372V12.72C25.0239 13.1867 24.5305 13.5467 23.9572 13.8C23.3839 14.04 22.7639 14.16 22.0972 14.16C20.6839 14.16 19.5639 13.7533 18.7372 12.94C17.9105 12.1267 17.4972 10.92 17.4972 9.32V3.24H20.6172V8.86C20.6172 10.5933 21.3439 11.46 22.7972 11.46C23.5439 11.46 24.1439 11.22 24.5972 10.74C25.0505 10.2467 25.2772 9.52 25.2772 8.56V3.24H28.3972ZM38.1277 14L35.7677 10.7L33.3277 14H29.9277L34.0677 8.58L30.0677 3.24H33.5677L35.8477 6.38L38.1877 3.24H41.5077L37.5077 8.5L41.6677 14H38.1277ZM47.9702 14.16C46.8368 14.16 45.8168 13.9267 44.9102 13.46C44.0168 12.98 43.3168 12.32 42.8102 11.48C42.3035 10.64 42.0502 9.68667 42.0502 8.62C42.0502 7.55333 42.3035 6.6 42.8102 5.76C43.3168 4.92 44.0168 4.26667 44.9102 3.8C45.8168 3.32 46.8368 3.08 47.9702 3.08C49.1035 3.08 50.1168 3.32 51.0102 3.8C51.9035 4.26667 52.6035 4.92 53.1102 5.76C53.6168 6.6 53.8702 7.55333 53.8702 8.62C53.8702 9.68667 53.6168 10.64 53.1102 11.48C52.6035 12.32 51.9035 12.98 51.0102 13.46C50.1168 13.9267 49.1035 14.16 47.9702 14.16ZM47.9702 11.6C48.7702 11.6 49.4235 11.3333 49.9302 10.8C50.4502 10.2533 50.7102 9.52667 50.7102 8.62C50.7102 7.71333 50.4502 6.99333 49.9302 6.46C49.4235 5.91333 48.7702 5.64 47.9702 5.64C47.1702 5.64 46.5102 5.91333 45.9902 6.46C45.4702 6.99333 45.2102 7.71333 45.2102 8.62C45.2102 9.52667 45.4702 10.2533 45.9902 10.8C46.5102 11.3333 47.1702 11.6 47.9702 11.6ZM62.4956 3.08C63.829 3.08 64.9023 3.48 65.7156 4.28C66.5423 5.08 66.9556 6.26667 66.9556 7.84V14H63.8356V8.32C63.8356 7.46667 63.649 6.83333 63.2756 6.42C62.9023 5.99333 62.3623 5.78 61.6556 5.78C60.869 5.78 60.2423 6.02667 59.7756 6.52C59.309 7 59.0756 7.72 59.0756 8.68V14H55.9556V3.24H58.9356V4.5C59.349 4.04667 59.8623 3.7 60.4756 3.46C61.089 3.20667 61.7623 3.08 62.4956 3.08ZM74.1238 3.08C75.7904 3.08 77.0704 3.48 77.9638 4.28C78.8571 5.06667 79.3038 6.26 79.3038 7.86V14H76.3838V12.66C75.7971 13.66 74.7038 14.16 73.1038 14.16C72.2771 14.16 71.5571 14.02 70.9438 13.74C70.3438 13.46 69.8838 13.0733 69.5638 12.58C69.2438 12.0867 69.0838 11.5267 69.0838 10.9C69.0838 9.9 69.4571 9.11333 70.2038 8.54C70.9638 7.96667 72.1304 7.68 73.7038 7.68H76.1838C76.1838 7 75.9771 6.48 75.5638 6.12C75.1504 5.74667 74.5304 5.56 73.7038 5.56C73.1304 5.56 72.5638 5.65333 72.0038 5.84C71.4571 6.01333 70.9904 6.25333 70.6038 6.56L69.4838 4.38C70.0704 3.96667 70.7704 3.64667 71.5838 3.42C72.4104 3.19333 73.2571 3.08 74.1238 3.08ZM73.8838 12.06C74.4171 12.06 74.8904 11.94 75.3038 11.7C75.7171 11.4467 76.0104 11.08 76.1838 10.6V9.5H74.0438C72.7638 9.5 72.1238 9.92 72.1238 10.76C72.1238 11.16 72.2771 11.48 72.5838 11.72C72.9038 11.9467 73.3371 12.06 73.8838 12.06Z" fill="#DEE1EC"/>
</svg>
