<svg width="40" height="40" viewBox="0 0 40 40" fill="none" xmlns="http://www.w3.org/2000/svg">
<path d="M21.6434 19.999L26.6552 14.9981C26.8747 14.7786 26.998 14.4809 26.998 14.1705C26.998 13.86 26.8747 13.5623 26.6552 13.3428C26.4358 13.1233 26.1381 13 25.8277 13C25.5173 13 25.2196 13.1233 25.0002 13.3428L20 18.3554L14.9998 13.3428C14.7804 13.1233 14.4827 13 14.1723 13C13.8619 13 13.5642 13.1233 13.3448 13.3428C13.1253 13.5623 13.002 13.86 13.002 14.1705C13.002 14.4809 13.1253 14.7786 13.3448 14.9981L18.3566 19.999L13.3448 24.9999C13.2355 25.1083 13.1488 25.2372 13.0896 25.3792C13.0305 25.5213 13 25.6736 13 25.8275C13 25.9814 13.0305 26.1338 13.0896 26.2758C13.1488 26.4179 13.2355 26.5468 13.3448 26.6552C13.4531 26.7644 13.582 26.8512 13.7241 26.9103C13.8661 26.9695 14.0184 27 14.1723 27C14.3262 27 14.4785 26.9695 14.6205 26.9103C14.7626 26.8512 14.8915 26.7644 14.9998 26.6552L20 21.6427L25.0002 26.6552C25.1085 26.7644 25.2374 26.8512 25.3795 26.9103C25.5215 26.9695 25.6738 27 25.8277 27C25.9816 27 26.1339 26.9695 26.2759 26.9103C26.418 26.8512 26.5469 26.7644 26.6552 26.6552C26.7645 26.5468 26.8512 26.4179 26.9104 26.2758C26.9695 26.1338 27 25.9814 27 25.8275C27 25.6736 26.9695 25.5213 26.9104 25.3792C26.8512 25.2372 26.7645 25.1083 26.6552 24.9999L21.6434 19.999Z" fill="#DEE1EC" fill-opacity="0.7"/>
</svg>
