<svg width="40" height="40" viewBox="0 0 40 40" fill="none" xmlns="http://www.w3.org/2000/svg">
<path d="M17.3172 23.9838C17.0173 23.9844 16.7267 23.8799 16.4958 23.6886L8.79495 17.2713C8.53285 17.0534 8.36802 16.7404 8.33673 16.401C8.30544 16.0616 8.41025 15.7237 8.6281 15.4616C8.84596 15.1995 9.15901 15.0346 9.49839 15.0034C9.83778 14.9721 10.1757 15.0769 10.4378 15.2947L17.3172 21.0447L24.1966 15.5001C24.3279 15.3935 24.4789 15.3139 24.6411 15.2658C24.8032 15.2178 24.9733 15.2022 25.1414 15.2201C25.3096 15.238 25.4726 15.289 25.621 15.3701C25.7694 15.4511 25.9003 15.5608 26.0063 15.6926C26.1238 15.8246 26.2128 15.9794 26.2677 16.1474C26.3227 16.3153 26.3423 16.4928 26.3254 16.6688C26.3086 16.8447 26.2556 17.0152 26.1697 17.1697C26.0839 17.3242 25.9671 17.4592 25.8266 17.5665L18.1258 23.7656C17.8882 23.9267 17.6035 24.0035 17.3172 23.9838V23.9838Z" fill="#DEE1EC" fill-opacity="0.7"/>
</svg>
