<svg width="40" height="40" viewBox="0 0 40 40" fill="none" xmlns="http://www.w3.org/2000/svg">
<path d="M24.1456 13.2C24.6136 13.1996 25.0769 13.2865 25.5085 13.4554C25.94 13.6244 26.3311 13.8721 26.6587 14.184C27.3339 14.8238 27.7123 15.6859 27.7123 16.584C27.7123 17.4821 27.3339 18.3442 26.6587 18.984L20 25.278L13.3413 18.984C12.6661 18.3442 12.2877 17.4821 12.2877 16.584C12.2877 15.6859 12.6661 14.8238 13.3413 14.184C13.6691 13.8723 14.0602 13.6248 14.4917 13.4558C14.9232 13.2868 15.3864 13.1997 15.8544 13.1997C16.3223 13.1997 16.7855 13.2868 17.217 13.4558C17.6485 13.6248 18.0396 13.8723 18.3675 14.184L20 15.744L21.6261 14.196C21.9528 13.8804 22.3443 13.6295 22.7772 13.4584C23.2101 13.2873 23.6755 13.1994 24.1456 13.2V13.2ZM24.1456 12C23.5065 11.9995 22.8737 12.1181 22.2843 12.3489C21.695 12.5797 21.1609 12.918 20.7134 13.344L20 14.016L19.2866 13.344C18.8385 12.9188 18.3043 12.581 17.7151 12.3505C17.1258 12.12 16.4933 12.0013 15.8544 12.0013C15.2155 12.0013 14.5829 12.12 13.9937 12.3505C13.4044 12.581 12.8702 12.9188 12.4222 13.344C11.5107 14.2102 11 15.3758 11 16.59C11 17.8042 11.5107 18.9698 12.4222 19.836L20 27L27.5778 19.836C28.4893 18.9698 29 17.8042 29 16.59C29 15.3758 28.4893 14.2102 27.5778 13.344C27.1299 12.9185 26.5958 12.5806 26.0065 12.3498C25.4172 12.1191 24.7846 12.0002 24.1456 12V12Z" fill="#DEE1EC" fill-opacity="0.7"/>
</svg>
