<svg width="39" height="40" viewBox="0 0 39 40" fill="none" xmlns="http://www.w3.org/2000/svg">
<path d="M19.9753 13.4605C19.8097 13.4539 19.675 13.3202 19.675 13.1545V11.6912C19.675 11.4288 19.3618 11.2929 19.1702 11.4721L16.4094 14.0536C16.2826 14.1722 16.2826 14.3733 16.4094 14.4919L19.1702 17.0733C19.3618 17.2526 19.675 17.1167 19.675 16.8542V15.3909C19.675 15.2252 19.8096 15.0901 19.9751 15.0988C22.7321 15.2446 24.925 17.386 24.925 20C24.925 20.7426 24.7484 21.4522 24.4268 22.0813C24.3632 22.2057 24.3849 22.3585 24.4869 22.454L25.3338 23.2458C25.4684 23.3717 25.684 23.3478 25.7791 23.1899C26.3462 22.2485 26.675 21.161 26.675 20C26.675 16.4777 23.7034 13.6074 19.9753 13.4605ZM19.675 24.6091C19.675 24.7748 19.5405 24.9099 19.375 24.9012C16.618 24.7554 14.425 22.614 14.425 20C14.425 19.2574 14.6017 18.5478 14.9233 17.9187C14.9869 17.7943 14.9652 17.6415 14.8632 17.546L14.0163 16.7542C13.8817 16.6283 13.6661 16.6522 13.571 16.8101C13.0038 17.7515 12.675 18.839 12.675 20C12.675 23.5223 15.6467 26.3926 19.3748 26.5395C19.5404 26.5461 19.675 26.6798 19.675 26.8455V28.3088C19.675 28.5712 19.9882 28.7071 20.1799 28.5279L22.9407 25.9464C23.0675 25.8278 23.0675 25.6267 22.9407 25.5081L20.1799 22.9267C19.9883 22.7474 19.675 22.8833 19.675 23.1458V24.6091Z" fill="#DEE1EC" fill-opacity="0.7"/>
</svg>
