<?xml version="1.0" encoding="UTF-8" standalone="no"?>
<!-- Created with Inkscape (http://www.inkscape.org/) -->

<svg
   xmlns:dc="http://purl.org/dc/elements/1.1/"
   xmlns:cc="http://creativecommons.org/ns#"
   xmlns:rdf="http://www.w3.org/1999/02/22-rdf-syntax-ns#"
   xmlns:svg="http://www.w3.org/2000/svg"
   xmlns="http://www.w3.org/2000/svg"
   xmlns:xlink="http://www.w3.org/1999/xlink"
   xmlns:sodipodi="http://sodipodi.sourceforge.net/DTD/sodipodi-0.dtd"
   xmlns:inkscape="http://www.inkscape.org/namespaces/inkscape"
   id="svg2912"
   version="1.1"
   inkscape:version="0.48.4 r9939"
   width="1052.3622"
   height="744.09448"
   sodipodi:docname="Logo_Naruto_Shippūden_(jp).svg">
  <sodipodi:namedview
     pagecolor="#ffffff"
     bordercolor="#666666"
     borderopacity="1"
     objecttolerance="10"
     gridtolerance="10"
     guidetolerance="10"
     inkscape:pageopacity="0"
     inkscape:pageshadow="2"
     inkscape:window-width="692"
     inkscape:window-height="480"
     id="namedview37"
     showgrid="false"
     inkscape:zoom="0.35636554"
     inkscape:cx="468.73344"
     inkscape:cy="290.28138"
     inkscape:window-x="75"
     inkscape:window-y="34"
     inkscape:window-maximized="0"
     inkscape:current-layer="svg2912" />
  <metadata
     id="metadata2918">
    <rdf:RDF>
      <cc:Work
         rdf:about="">
        <dc:format>image/svg+xml</dc:format>
        <dc:type
           rdf:resource="http://purl.org/dc/dcmitype/StillImage" />
        <dc:title />
      </cc:Work>
    </rdf:RDF>
  </metadata>
  <defs
     id="defs2916">
    <linearGradient
       id="linearGradient3902">
      <stop
         style="stop-color:#170a88;stop-opacity:1;"
         offset="0"
         id="stop3904" />
      <stop
         id="stop3918"
         offset="0.5"
         style="stop-color:#0784be;stop-opacity:1;" />
      <stop
         style="stop-color:#1ca2ce;stop-opacity:1;"
         offset="1"
         id="stop3906" />
    </linearGradient>
    <linearGradient
       id="linearGradient3846">
      <stop
         style="stop-color:#ffe100;stop-opacity:1;"
         offset="0"
         id="stop3848" />
      <stop
         style="stop-color:#d20000;stop-opacity:1;"
         offset="1"
         id="stop3850" />
    </linearGradient>
    <linearGradient
       inkscape:collect="always"
       xlink:href="#linearGradient3902"
       id="linearGradient3945"
       gradientUnits="userSpaceOnUse"
       x1="638.22089"
       y1="258"
       x2="638.22089"
       y2="416.74356"
       gradientTransform="translate(-21.599363,301.39799)" />
    <linearGradient
       inkscape:collect="always"
       xlink:href="#linearGradient3846"
       id="linearGradient3647"
       x1="34.632648"
       y1="172.79837"
       x2="182.82692"
       y2="172.79837"
       gradientUnits="userSpaceOnUse"
       gradientTransform="translate(-21.599363,301.39799)" />
    <linearGradient
       inkscape:collect="always"
       xlink:href="#linearGradient3846"
       id="linearGradient3655"
       x1="168.4119"
       y1="174.0668"
       x2="301.39777"
       y2="174.0668"
       gradientUnits="userSpaceOnUse"
       gradientTransform="translate(-21.599363,301.39799)" />
    <linearGradient
       inkscape:collect="always"
       xlink:href="#linearGradient3846"
       id="linearGradient3663"
       x1="299.73367"
       y1="176.81412"
       x2="480"
       y2="176.81412"
       gradientUnits="userSpaceOnUse"
       gradientTransform="translate(-21.599363,301.39799)" />
    <linearGradient
       inkscape:collect="always"
       xlink:href="#linearGradient3846"
       id="linearGradient3681"
       x1="449.85214"
       y1="173.58759"
       x2="583.03101"
       y2="173.58759"
       gradientUnits="userSpaceOnUse"
       gradientTransform="translate(-21.599363,301.39799)" />
    <linearGradient
       inkscape:collect="always"
       xlink:href="#linearGradient3846"
       id="linearGradient3689"
       x1="584.07025"
       y1="182.18697"
       x2="695.58228"
       y2="182.18697"
       gradientUnits="userSpaceOnUse"
       gradientTransform="translate(-21.599363,301.39799)" />
    <linearGradient
       inkscape:collect="always"
       xlink:href="#linearGradient3846"
       id="linearGradient3697"
       x1="678.26428"
       y1="185.69073"
       x2="823.02698"
       y2="185.69073"
       gradientUnits="userSpaceOnUse"
       gradientTransform="translate(-21.599363,301.39799)" />
    <linearGradient
       inkscape:collect="always"
       xlink:href="#linearGradient3846"
       id="linearGradient3055"
       gradientUnits="userSpaceOnUse"
       gradientTransform="translate(-21.599363,301.39799)"
       x1="34.632648"
       y1="172.79837"
       x2="182.82692"
       y2="172.79837" />
    <linearGradient
       inkscape:collect="always"
       xlink:href="#linearGradient3846"
       id="linearGradient3057"
       gradientUnits="userSpaceOnUse"
       gradientTransform="translate(-21.599363,301.39799)"
       x1="168.4119"
       y1="174.0668"
       x2="301.39777"
       y2="174.0668" />
    <linearGradient
       inkscape:collect="always"
       xlink:href="#linearGradient3846"
       id="linearGradient3059"
       gradientUnits="userSpaceOnUse"
       gradientTransform="translate(-21.599363,301.39799)"
       x1="299.73367"
       y1="176.81412"
       x2="480"
       y2="176.81412" />
    <linearGradient
       inkscape:collect="always"
       xlink:href="#linearGradient3846"
       id="linearGradient3061"
       gradientUnits="userSpaceOnUse"
       gradientTransform="translate(-21.599363,301.39799)"
       x1="449.85214"
       y1="173.58759"
       x2="583.03101"
       y2="173.58759" />
    <linearGradient
       inkscape:collect="always"
       xlink:href="#linearGradient3846"
       id="linearGradient3063"
       gradientUnits="userSpaceOnUse"
       gradientTransform="translate(-21.599363,301.39799)"
       x1="584.07025"
       y1="182.18697"
       x2="695.58228"
       y2="182.18697" />
    <linearGradient
       inkscape:collect="always"
       xlink:href="#linearGradient3846"
       id="linearGradient3065"
       gradientUnits="userSpaceOnUse"
       gradientTransform="translate(-21.599363,301.39799)"
       x1="678.26428"
       y1="185.69073"
       x2="823.02698"
       y2="185.69073" />
    <linearGradient
       inkscape:collect="always"
       xlink:href="#linearGradient3902"
       id="linearGradient3067"
       gradientUnits="userSpaceOnUse"
       gradientTransform="translate(-21.599363,301.39799)"
       x1="638.22089"
       y1="258"
       x2="638.22089"
       y2="416.74356" />
  </defs>
  <g
     id="g3034"
     transform="translate(85.62223,-161.08963)">
    <g
       id="g3014">
      <path
         style="fill:#e543a7;fill-opacity:1;stroke:#ffffff;stroke-width:4.5;stroke-miterlimit:4;stroke-opacity:1;stroke-dasharray:none"
         d="m 714.21314,324.46049 c -81.8186,1.65939 -175.27647,34.57908 -251.92155,60.79166 0,0 14.30226,15.46971 14.30226,15.46971 39.19644,-16.62415 83.51505,-28.42065 125.35707,-35.79029 36.54818,-6.43724 76.90635,-15.86993 111.31331,1.03122 15.13641,7.4352 16.19891,17.7477 16.19891,24.16007 0,0 48.9375,5.18474 48.9375,5.18474 4.90794,-2.71157 8.97796,-12.75666 11,-17.59711 8.07141,-19.32171 -6.59548,-41.89773 -26.5,-47.09375 -15.90351,-4.15157 -32.29746,-6.48866 -48.6875,-6.15625 z M 495.78973,426.04964 c 2.78769,-1.35202 6.86988,-3.74174 9.46615,-2.65165 0,0 5.53125,-20.97227 5.53125,-20.97227 -7.82344,0.50381 -18.46919,3.93067 -23.35876,7.74172 0,0 8.36136,15.8822 8.36136,15.8822 z m 94.82966,58.97335 c -8.27076,4.85595 -13.59375,8.375 -21.06211,15.73234 0,0 -2.53164,22.64266 -2.53164,22.64266 3.87054,-1.96434 19.01316,-10.19282 21.375,-14.625 0,0 2.21875,-23.75 2.21875,-23.75 z m -202.21875,28.375 c 0,0 15.21875,12.25 15.21875,12.25 5.78125,-2.80083 12.86495,-6.02154 18.03125,-10.03125 0,0 -3.25,-16.9375 -3.25,-16.9375 -7.73478,4.49887 -20,8.45949 -30,14.71875 z m 175.0625,27.9375 c 0,0 -1.625,19.46875 -1.625,19.46875 5.94839,-1.52236 22.73738,-10.68372 25.8125,-15.40625 l -2.21875,-17.4688 c -6.09375,2.52675 -21.48446,13.01179 -21.96875,13.4063 z m -358.13525,52.0625 c 4.13341,-3.87079 20.53031,-22.86266 23.07275,-25.35952 l -10,-18.07612 c 0,0 -13.07275,43.43564 -13.07275,43.43564 z m 123.07275,3.65381 c -4.47062,2.35826 -37.17157,-25.42158 -37.17157,-25.42158 0,0 -51.22907,22.46427 -51.22907,22.46427 -10,23.9896 20.71449,32.97776 44.57349,33.2778 27.37585,0.34428 98.50848,-18.44292 114.71103,-25.83046 0,0 -26.46614,-14.24111 -26.46614,-14.24111 -13.91906,3.34978 -30.42391,6.74086 -44.41774,9.75108 z M 35.400637,675.86674 c -5.5729,13.41149 -0.710775,29.38204 10.09375,38.84375 17.999837,15.76278 43.07853,17.69003 65.936653,18.33948 62.45472,1.77447 123.64954,-13.7829 183.26585,-30.63976 32.07773,-9.07017 63.70375,-19.01222 94.57875,-32.29347 5.28536,-2.27356 3.20537,-15.91445 -4.34375,-16.71875 -12.20819,-0.28668 -24.75395,7.37742 -36.24561,10.81779 -63.26478,18.94017 -128.26346,38.52141 -194.90677,35.56307 -18.77288,-0.83334 -40.04694,-4.8626 -52.56637,-20.38086 -3.980773,-4.93429 -6.846903,-13.93994 -6.312503,-20.09375 1.65276,-19.0322 32.781253,-57.25 43.500003,-65.90625 l -33.22247,-7.37111 C 76.190652,614.36405 51.185101,637.88057 35.400637,675.86674 z M 358.40064,630.26718 c -60,13.13081 -144.19061,27.68032 -164.34315,-1.82751 -3.63769,-4.93764 1.68149,-18.05134 6.11552,-25.04168 0,0 -39.65105,-6.70711 -39.65105,-6.70711 -17.54657,16.70711 -34.5761,44.79055 -23.37132,63.95711 3.38885,5.79686 13.12398,11.39626 19.15625,13.25 41.37224,12.71383 85.2218,3.51791 126.50105,-4.94784 40.9008,-8.38813 86.62211,-22.42186 125.5927,-37.30476 l -5.46462,-18.2474 c -14.53538,2.97772 -30.76302,11.24546 -44.53538,16.86919 z m 305.5,-248.36919 c 15.29159,0.53139 24.26161,12.12551 34.5,21.5 l -24.25,6.25 -10.25,-27.75 z"
         id="path2961"
         sodipodi:nodetypes="cccssccssscccccccccccccccccccccccccccsccccsssscssssccsccccsssccccccc"
         inkscape:connector-curvature="0" />
      <path
         sodipodi:nodetypes="csssscssszzsssssssscssssscssssssssssssssssssssscsssssssssssssssccssssszssssssssssssssssssssssscssssssssssssscssscccccssssssscccccccccscss"
         id="path3762"
         d="m 159.95475,364.0209 c -10.55711,2.73245 -10.18025,16.85189 -16.09375,24.71875 -6.62493,8.81329 -13.74053,17.5483 -16.40625,28.6875 -1.47265,6.15376 -1.44029,14.1144 -5.875,18.46875 -6.66446,6.54369 -2.85889,16.10541 -1.1875,23.5625 0.7062,3.15082 0.40688,6.44668 0.0937,9.65625 -4.41721,-9.34392 -7.21805,-20.93119 -1.78125,-30.6875 6.06487,-10.88336 6.36812,-26.68192 -3.75,-35.65625 -7.99751,-7.09344 -19.316233,-10.63679 -29.625003,-10.15625 -4.541,0.21168 -7.412273,8.13388 -10.937497,6.75 -3.525224,-1.38388 -5.572249,-4.54879 -8.645096,-6.58173 -3.072846,-2.03293 -8.491651,6.00392 -10.792404,9.98798 -7.141154,12.36587 -20.145119,24.63087 -17.46875,40.1875 2.526975,14.68827 -3.407966,28.674 -5.100016,43.08046 -1.380566,11.75442 -1.88362,24.77573 -5.147091,36.16954 -0.714118,2.49321 -3.136196,2.74995 -3.315393,6.46875 -0.228281,4.73741 0.569568,9.62858 -3.401808,13.53125 -5.053006,4.96558 1.550039,12.35956 -1.109835,19 -6.458182,16.12299 -2.543155,35.65904 7.167893,50.03125 4.387635,6.49364 5.867118,7.42981 11.820937,4.15834 7.472731,-5.40524 25.814455,-5.53208 31.835313,-13.22084 2.152568,-2.74888 -1.080656,-6.7952 0.5625,-8.625 3.869353,-4.30886 15.372107,-9.65625 10.937497,-16.9375 -1.6091,-2.64201 -2.96249,-4.75331 -1.65625,-7.78125 1.63352,-3.78656 1.06183,-13.55529 3.28125,-12 6.88728,4.82636 10.2841,23.51825 19.250003,33.25 5.17154,5.76754 11.28024,13.5428 19,14 7.41254,0.43901 13.55733,-6.70588 21.1875,-7.0625 3.17682,-0.14848 8.00432,-3.98556 10.09375,-1.59375 4.73302,5.41797 10.14683,10.15535 15.125,15.34375 4.8686,5.0742 12.42462,3.31005 18.5,0.59375 7.62326,-3.40836 20.8528,-2.86354 22.89477,-12.90864 1.66851,-8.20788 6.18787,-15.02638 7.65684,-23.38202 1.62806,-9.26053 1.86388,-21.07109 9.51089,-27.20934 2.3842,-1.9138 9.23814,-5.06004 9.6875,-2.75 2.50826,12.89424 -4.18,29.72953 2.44876,43.59271 4.68078,9.78923 6.20427,22.53624 14.70749,29.31354 5.95318,4.74485 12.30068,-4.03642 15.28125,-9.34375 4.9759,-8.86028 12.61125,-16.17587 19.37378,-24.04111 1.10157,-1.28119 2.36996,-4.19564 3.21997,-3.89639 1.12308,0.39539 2.00201,3.99214 3.19661,5.90453 5.87079,9.39832 14.64482,17.89793 25.52214,19.90797 14.40608,2.66212 25.46919,-11.25781 28.8125,-24.15625 0.83946,-3.23864 -0.21685,-9.21947 4.6946,-4.60501 9.77644,9.18525 21.47042,16.93029 33.37527,23.38458 6.91423,3.7486 14.89195,5.21949 21.93013,8.68918 9.73316,4.79827 19.73728,11.7144 31.55348,9.58471 35.45843,-6.39083 71.59505,-10.3385 107.22777,-16.05346 10.05753,-4.73416 15.89404,-15.45699 20.59375,-25.03125 2.86595,-5.83851 2.20718,-12.52787 -1.5625,-18.09375 -2.46526,-3.63992 1.1049,-8.49005 0.56247,-12.96777 -0.72676,-5.99935 1.87283,-11.56192 3.15628,-17.21973 0.5239,-2.30952 -0.73099,-5.52716 -0.44585,-7.875 0.97088,-7.99408 4.26825,-15.0131 5.2896,-23.09375 1.20766,-9.55471 5.81538,-18.119 7.96875,-27.40625 0.53739,-2.31772 3.77324,0.79731 5.84375,1.09375 4.69801,0.67263 9.37535,-2.73384 13.34375,-2 4.38102,0.81015 1.61504,8.03369 3.1875,11.96875 2.38005,5.95604 -2.45872,10.87218 -2.8379,16.93038 -0.74075,11.83497 -0.37003,23.83972 -1.97451,35.59373 -0.43694,3.20089 -1.53887,6.30475 -1.81259,9.53839 -0.72035,8.51017 0.42944,17.27846 1.0402,25.87881 0.61277,8.62865 0.73751,17.09431 2.32352,25.45363 0,0 15.41754,12.48006 15.41754,12.48006 0,0 95.53125,0.96875 95.53125,0.96875 12.16995,3.58495 25.59363,0.20918 36.90625,-4.71875 16.41735,-7.15162 28.50251,-20.58197 42.125,-31.6875 6.04491,-4.92803 6.71505,-13.54506 12.90625,-18.46875 17.65274,-14.03872 23.89757,-38.20891 24.625,-60.1875 0.80363,-24.28101 -4.62718,-49.4434 -20.34747,-68.43388 -6.14468,-7.42291 -14.81057,-15.6023 -20.21503,-20.50362 -5.40446,-4.90132 -9.25319,-1.52771 -13.41009,-2.58746 -3.55497,-0.9063 -5.50877,-2.46888 -9.21137,-2.77132 -4.60414,-0.37607 -10.93135,0.83863 -15.13552,3.10997 -3.9628,2.14094 -8.24819,2.78877 -12.71177,0.18631 -12.49391,-7.28449 -29.40652,1.04475 -37.3125,12.25 -2.4824,3.51834 -2.59767,1.32888 -3.6875,-1.5625 -2.52054,-6.68712 -4.52668,-13.40902 -10.91416,-16.00669 -5.59915,-2.27708 -13.90293,-6.42812 -19.40722,-8.5745 -4.32933,-1.6882 -10.9254,3.18941 -17.2359,1.88541 -9.41968,-1.94649 -18.73729,1.99404 -28.32309,2.70389 -10.74577,0.79575 -21.94858,1.13067 -31.76608,5.84636 -1.74856,0.8399 -3.43381,2.54944 -5.47851,-0.40977 -5.11642,-7.40479 -10.25971,-11.42172 -15.09834,-17.47595 -3.92439,-4.9103 -19.73145,6.87783 -28.3079,9.90625 -13.91151,4.91227 -15.37406,23.25521 -19.28125,36 -8.5531,27.89922 -12.82048,67.59615 -22.4375,84.625 -1.58328,2.8035 -2.31056,-5.22514 -1.68806,-12.38615 0.25035,-2.87984 1.16161,-5.51898 1.43806,-7.4576 0.92614,-6.49462 -1.82845,-12.81223 0.52908,-19.5313 5.55532,-15.83289 5.50995,-33.87753 -0.96658,-49.81245 -1.95342,-4.80622 -6.03494,-8.6647 -7.65625,-13.125 -3.26605,-8.98502 -14.77336,-9.15852 -22.04459,-12.53753 -12.22529,-5.68122 -13.75714,-4.38046 -18.26792,2.31878 -4.2405,6.29782 -7.50382,13.17648 -10.8125,19.90625 -8.79842,-17.88633 -27.11905,-28.10245 -45.25418,-34.67667 -18.95832,-6.87264 -39.95647,-14.76561 -59.93332,-9.26083 -20.09958,5.53859 -36.05055,24.43147 -38.5625,45.40625 -0.36156,3.01903 -0.47595,4.17825 -1.53125,0.53125 -0.75609,-2.61296 -2.28047,-4.72758 -4.16463,-6.48302 -1.98608,-1.8504 -6.52702,-2.91641 -6.67912,-4.51698 -0.17295,-1.82 5.31859,-5.7243 5.86081,-8.90625 0.70492,-4.13673 -2.18531,-7.7979 -6.20456,-10.1875 -9.54251,-5.67339 -16.64399,-19.45762 -28.9375,-17.71875 -9.77233,1.38226 -17.31376,9.10644 -25.78125,13.875 -6.59446,3.71374 -9.62783,11.78062 -16.90625,15.21875 -8.26315,3.90329 -13.00898,13.3184 -16.4375,21.59375 -1.8125,4.37479 3.71659,7.16385 1.65744,11.95031 -5.65296,13.14023 -8.74263,27.47607 -14.09494,40.86219 1.82248,-20.48833 4.02806,-41.10373 6.125,-61.4375 1.77704,-17.23172 -13.0562,-30.16585 -20.03125,-44.96875 -1.61574,-3.42903 -5.28116,-8.39415 -9.21875,-7.375 z m 521.4375,97.90625 c -1.72007,6.53806 -3.6542,12.91788 -6.71875,19 0.81295,-6.06576 1.60549,-12.05617 2.15625,-18.15625 1.51968,-0.22283 3.07281,-0.42377 4.5625,-0.84375 z m 75.96875,12.875 c 6.01475,0.88421 2.27599,10.30013 3.71875,15 1.73148,5.64041 2.15795,11.78282 -1.28125,17.34375 -5.97504,9.66118 -6.34121,23.87116 -17.23138,30.20183 -2.36331,1.37384 -6.9699,6.64239 -7.76862,4.82942 -2.61155,-5.92785 1.06109,-14.53581 1.0294,-21.99957 -0.048,-11.30098 5.33277,-22.0746 5.3456,-33.59418 0.008,-7.3299 9.6491,-12.74245 16.1875,-11.78125 z m -325.0625,8.0625 c 0.84017,12.29571 0.32624,24.66765 -0.5625,36.84375 0.48446,11.50179 2.78903,22.82923 5.84375,33.90625 -16.83881,-13.65527 -35.59056,-26.59227 -51.5,-40.28125 11.8198,-5.5361 21.59095,-14.43836 33.14874,-20.48586 4.70556,-3.07167 9.24789,-6.52198 13.03876,-10.63914 l 0.0312,0.65625 5e-5,0 z m 233.3125,47.625 c 2.08271,-1.5942 2.92831,12.94408 1.96875,19.625 -0.83624,5.82228 0.0811,11.8886 1.78125,17.53125 -3.27338,-1.35823 -7.50052,-1.29158 -6.65625,-6.5625 1.59839,-9.979 -0.0824,-28.30613 2.90625,-30.59375 z"
         style="fill:#000000;fill-opacity:1;stroke:none"
         inkscape:connector-curvature="0" />
      <path
         style="fill:#000000;fill-opacity:1;stroke:none"
         d="m 143.71314,345.21049 c -10.55711,2.73245 -10.18025,16.85189 -16.09375,24.71875 -6.62493,8.81329 -13.74053,17.54829 -16.40625,28.6875 -1.47265,6.15376 -1.44029,14.1144 -5.875,18.46875 -6.664463,6.54369 -2.85889,16.10541 -1.1875,23.5625 0.7062,3.15082 0.40688,6.44668 0.0937,9.65625 -4.417213,-9.34392 -7.218053,-20.93119 -1.78125,-30.6875 6.06487,-10.88336 6.36812,-26.68192 -3.750003,-35.65625 -7.99751,-7.09344 -19.31623,-10.63679 -29.625,-10.15625 -4.541006,0.21168 -7.412276,8.13388 -10.9375,6.75 -3.525224,-1.38388 -5.572249,-4.54879 -8.645096,-6.58173 -3.072846,-2.03293 -8.491651,6.00392 -10.792404,9.98798 -7.141154,12.36587 -20.145119,24.63087 -17.46875,40.1875 2.526975,14.68827 -3.407966,28.674 -5.100016,43.08046 -1.380566,11.75442 -1.88362,24.77573 -5.147091,36.16954 -0.714118,2.49321 -3.1361958,2.74995 -3.3153928,6.46875 -0.228281,4.73741 0.569568,9.62858 -3.401808,13.53125 -5.05300598,4.96558 1.550039,12.35956 -1.109835,19 -6.458182,16.12299 -2.54315498,35.65904 7.1678928,50.03125 4.387635,6.49364 5.867118,7.42981 11.820937,4.15834 7.472731,-5.40524 25.814455,-5.53208 31.835313,-13.22084 2.152568,-2.74888 -1.080656,-6.7952 0.5625,-8.625 3.869353,-4.30886 15.372103,-9.65625 10.9375,-16.9375 -1.6091,-2.64201 -2.962498,-4.75331 -1.65625,-7.78125 1.633516,-3.78656 1.061825,-13.55529 3.28125,-12 6.887277,4.82636 10.284099,23.51825 19.25,33.25 5.17154,5.76754 11.28024,13.5428 19.000003,14 7.41254,0.43901 13.55733,-6.70588 21.1875,-7.0625 3.17682,-0.14848 8.00432,-3.98556 10.09375,-1.59375 4.73302,5.41797 10.14683,10.15535 15.125,15.34375 4.8686,5.0742 12.42462,3.31005 18.5,0.59375 7.62326,-3.40836 20.8528,-2.86354 22.89477,-12.90864 1.66851,-8.20788 6.18787,-15.02638 7.65684,-23.38202 1.62806,-9.26053 1.86388,-21.07109 9.51089,-27.20934 2.3842,-1.9138 9.23814,-5.06004 9.6875,-2.75 2.50826,12.89424 -4.18,29.72953 2.44876,43.59271 4.68078,9.78923 6.20427,22.53624 14.70749,29.31354 5.95318,4.74485 12.30068,-4.03642 15.28125,-9.34375 4.9759,-8.86028 12.61125,-16.17587 19.37378,-24.04111 1.10157,-1.28119 2.36996,-4.19564 3.21997,-3.89639 1.12308,0.39539 2.00201,3.99214 3.19661,5.90453 5.87079,9.39832 14.64482,17.89793 25.52214,19.90797 14.40608,2.66212 25.46919,-11.25781 28.8125,-24.15625 0.83946,-3.23864 -0.21685,-9.21947 4.6946,-4.60501 9.77644,9.18525 21.47042,16.93029 33.37527,23.38458 6.91423,3.7486 14.89195,5.21949 21.93013,8.68918 9.73316,4.79827 19.73728,11.7144 31.55348,9.58471 35.45843,-6.39083 71.59505,-10.3385 107.22777,-16.05346 10.05753,-4.73416 15.89404,-15.45699 20.59375,-25.03125 2.86595,-5.83851 2.20718,-12.52787 -1.5625,-18.09375 -2.46526,-3.63992 1.1049,-8.49005 0.56247,-12.96777 -0.72676,-5.99935 1.87283,-11.56192 3.15628,-17.21973 0.5239,-2.30952 -0.73099,-5.52716 -0.44585,-7.875 0.97088,-7.99408 4.26825,-15.0131 5.2896,-23.09375 1.20766,-9.55471 5.81538,-18.119 7.96875,-27.40625 0.53739,-2.31772 3.77324,0.79731 5.84375,1.09375 4.69801,0.67263 9.37535,-2.73384 13.34375,-2 4.38102,0.81015 1.61504,8.03369 3.1875,11.96875 2.38005,5.95604 -2.45872,10.87218 -2.8379,16.93038 -0.74075,11.83497 -0.37003,23.83972 -1.97451,35.59373 -0.43694,3.20089 -1.53887,6.30475 -1.81259,9.53839 -0.72035,8.51017 0.42944,17.27846 1.0402,25.87881 0.61277,8.62865 0.73751,17.09431 2.32352,25.45363 0,0 15.41754,12.48006 15.41754,12.48006 0,0 95.53125,0.96875 95.53125,0.96875 12.16995,3.58495 25.59363,0.20918 36.90625,-4.71875 16.41735,-7.15162 28.50251,-20.58197 42.125,-31.6875 6.04491,-4.92803 6.71505,-13.54506 12.90625,-18.46875 17.65274,-14.03872 23.89757,-38.20891 24.625,-60.1875 0.80363,-24.28101 -4.62718,-49.4434 -20.34747,-68.43388 -6.14468,-7.42291 -14.81057,-15.6023 -20.21503,-20.50362 -5.40446,-4.90132 -9.25319,-1.52771 -13.41009,-2.58746 -3.55497,-0.9063 -5.50877,-2.46888 -9.21137,-2.77132 -4.60414,-0.37607 -10.93135,0.83863 -15.13552,3.10997 -3.9628,2.14094 -8.24819,2.78877 -12.71177,0.18631 -12.49391,-7.28449 -29.40652,1.04475 -37.3125,12.25 -2.4824,3.51834 -2.59767,1.32888 -3.6875,-1.5625 -2.52054,-6.68712 -4.52668,-13.40902 -10.91416,-16.00669 -5.59915,-2.27708 -13.90293,-6.42812 -19.40722,-8.5745 -4.32933,-1.6882 -10.9254,3.18941 -17.2359,1.88541 -9.41968,-1.94649 -18.73729,1.99404 -28.32309,2.70389 -10.74577,0.79575 -21.94858,1.13067 -31.76608,5.84636 -1.74856,0.8399 -3.43381,2.54944 -5.47851,-0.40977 -5.11642,-7.40479 -10.25971,-11.42172 -15.09834,-17.47595 -3.92439,-4.9103 -19.73145,6.87783 -28.3079,9.90625 -13.91151,4.91227 -15.37406,23.25521 -19.28125,36 -8.5531,27.89922 -12.82048,67.59615 -22.4375,84.625 -1.58328,2.8035 -2.31056,-5.22514 -1.68806,-12.38615 0.25035,-2.87984 1.16161,-5.51898 1.43806,-7.4576 0.92614,-6.49462 -1.82845,-12.81223 0.52908,-19.5313 5.55532,-15.83289 5.50995,-33.87753 -0.96658,-49.81245 -1.95342,-4.80622 -6.03494,-8.6647 -7.65625,-13.125 -3.26605,-8.98502 -14.77336,-9.15852 -22.04459,-12.53753 -12.22529,-5.68122 -13.75714,-4.38046 -18.26792,2.31878 -4.2405,6.29782 -7.50382,13.17648 -10.8125,19.90625 -8.79842,-17.88633 -27.11905,-28.10245 -45.25418,-34.67667 -18.95832,-6.87264 -39.95647,-14.76561 -59.93332,-9.26083 -20.09958,5.53859 -36.05055,24.43147 -38.5625,45.40625 -0.36156,3.01903 -0.47595,4.17825 -1.53125,0.53125 -0.75609,-2.61296 -2.28047,-4.72758 -4.16463,-6.48302 -1.98608,-1.8504 -6.52702,-2.91641 -6.67912,-4.51698 -0.17295,-1.82 5.31859,-5.72431 5.86081,-8.90625 0.70492,-4.13673 -2.18531,-7.7979 -6.20456,-10.1875 -9.54251,-5.67339 -16.64399,-19.45762 -28.9375,-17.71875 -9.77233,1.38226 -17.31376,9.10644 -25.78125,13.875 -6.59446,3.71374 -9.62783,11.78062 -16.90625,15.21875 -8.26315,3.90329 -13.00898,13.31839 -16.4375,21.59375 -1.8125,4.37479 3.71659,7.16385 1.65744,11.95031 -5.65296,13.14023 -8.74263,27.47607 -14.09494,40.86219 1.82248,-20.48833 4.02806,-41.10373 6.125,-61.4375 1.77704,-17.23172 -13.0562,-30.16585 -20.03125,-44.96875 -1.61574,-3.42903 -5.28116,-8.39415 -9.21875,-7.375 z m 521.4375,97.90625 c -1.72007,6.53806 -3.6542,12.91788 -6.71875,19 0.81295,-6.06576 1.60549,-12.05617 2.15625,-18.15625 1.51968,-0.22283 3.07281,-0.42377 4.5625,-0.84375 z m 75.96875,12.875 c 6.01475,0.88421 2.27599,10.30013 3.71875,15 1.73148,5.64041 2.15795,11.78282 -1.28125,17.34375 -5.97504,9.66118 -6.34121,23.87116 -17.23138,30.20183 -2.36331,1.37384 -6.9699,6.64239 -7.76862,4.82942 -2.61155,-5.92785 1.06109,-14.53581 1.0294,-21.99957 -0.048,-11.30098 5.33277,-22.0746 5.3456,-33.59418 0.008,-7.3299 9.6491,-12.74245 16.1875,-11.78125 z m -325.0625,8.0625 c 0.84017,12.29571 0.32624,24.66765 -0.5625,36.84375 0.48446,11.50179 2.78903,22.82923 5.84375,33.90625 -16.83881,-13.65527 -35.59056,-26.59227 -51.5,-40.28125 11.8198,-5.5361 21.59095,-14.43836 33.14874,-20.48586 4.70556,-3.07167 9.24789,-6.52198 13.03876,-10.63914 l 0.0312,0.65625 5e-5,0 z m 233.3125,47.625 c 2.08271,-1.5942 2.92831,12.94408 1.96875,19.625 -0.83624,5.82228 0.0811,11.8886 1.78125,17.53125 -3.27338,-1.35823 -7.50052,-1.29158 -6.65625,-6.5625 1.59839,-9.979 -0.0824,-28.30613 2.90625,-30.59375 z"
         id="path3754"
         sodipodi:nodetypes="csssscssszzsssssssscssssscssssssssssssssssssssscsssssssssssssssccssssszssssssssssssssssssssssscssssssssssssscssscccccssssssscccccccccscss"
         inkscape:connector-curvature="0" />
      <path
         style="fill:#ffffff;fill-opacity:1;stroke:none"
         d="m 144.24439,351.24174 c -2.74456,0.11248 -9.35571,21.7609 -15.46875,27.53125 -11.156,10.53061 -12.72056,26.68643 -16.78125,40.59375 -0.56308,1.92846 -4.04957,2.695 -4.6875,4.5625 -0.86247,2.52481 0.86813,8.43153 2.0625,12.5625 3.23791,11.199 -1.53563,23.13989 -1,34.59375 0.18732,4.00552 -0.57769,6.02225 -2.5625,-0.8125 -4.02769,-13.86952 -11.392883,-23.05277 -12.781253,-37.25 -1.08131,-11.05724 8.740693,-20.91179 7.562503,-32.125 -0.603303,-5.74178 -3.793373,-11.35 -8.218753,-14.5625 -5.20806,-3.78068 -12.56754,-4.7463 -19.53125,-6.875 -3.541686,-1.08264 -6.102148,4.86196 -11.71875,7.03125 -2.707532,1.04572 -4.944004,0.36301 -8.03125,-1.9375 -5.667135,-4.22296 -7.113459,-1.15625 -12.3125,6.90625 -6.499891,10.07981 -16.572198,20.70362 -13.40625,33.78125 2.528711,10.44538 -2.22908,20.11972 -3.46875,30.40625 -2.074475,17.21357 -5.5,32.36167 -7.78217,50.53309 -0.190522,1.517 -2.280894,3.30744 -2.581556,4.6221 -0.859373,3.75764 0.729722,8.3121 -1.073774,11.56356 -1.165054,2.10043 -3.8652018,3.87811 -4.0624998,6.10779 -0.475262,5.37098 3.2599238,5.61669 1.425857,10.89161 -1.539661,4.42819 -3.906204,13.58847 -3.904753,18.62581 0.003,10.41027 3.918076,22.65716 8.7897138,30.26404 2.045098,3.19334 3.484301,3.58341 5.869357,2.693 3.69876,-1.38085 14.304863,-5.62908 17.882325,-6.58225 1.914367,-0.51006 8.445335,-2.10271 9.9375,-3.36048 2.450939,-2.06595 -1.344749,-4.77403 0,-7.60827 1.306981,-2.75464 7.297726,-6.76027 10,-9.02773 3.92395,-3.29255 1.431215,-4.23025 -0.618718,-6.81066 -2.399131,-3.01996 0.286483,-6.95637 0.618718,-10.19102 1.02733,-10.00212 5.584166,-19.15131 6.490197,-22.14952 1.895668,-6.27311 3.669796,7.23845 8.728553,12.49143 4.498954,4.67168 7.74327,16.25578 12.68878,23.61978 3.93156,5.8542 8.82371,10.70751 14.515723,15.34269 3.57758,2.91332 4.37582,3.64354 7.57675,1.55606 4.44946,-2.90171 22.56409,-7.38968 26.49119,-8.48293 3.6134,-1.00592 4.08148,-3.73895 5.39009,-7.83516 1.0923,-3.41909 0.72625,1.41421 0.58752,4.64331 -0.11442,2.66337 -1.56459,4.66908 0.76769,6.84375 4.25602,3.9684 11.09084,11.1697 14.97391,14.60685 4.1781,3.6983 8.13285,0.068 13.0709,-1.5131 3.32318,-1.06403 11.63564,-2.57035 14.67046,-4.28991 4.32863,-2.45264 2.72427,-5.23478 4.36079,-10.21009 1.0742,-3.26576 3.08915,-5.33331 4.05365,-8.59375 3.41106,-11.5309 4.2351,-24.55384 9.57135,-34.99204 2.98983,-5.84837 12.70043,-7.39678 19.02878,-9.10794 2.38098,-0.6438 3.97096,0.27515 4.22122,2.19893 1.37365,10.55945 0.12565,15.98269 -1,25.4948 -1.65066,13.94858 7.57568,30.6884 12.84819,43.02297 2.81806,6.59261 5.20736,4.7236 7.98515,-0.16085 5.33972,-9.38931 19.62964,-25.27719 26.23661,-33.01668 2.29378,-2.68696 2.66028,-3.43919 2.3988,-6.59544 -0.31469,-3.79845 -0.27008,-7.74325 0.17682,-11.50344 0.43073,-3.62418 1.70622,-7.09241 2.72943,-10.65281 1.63092,-5.675 -0.66064,-14.07971 1.43745,-14.6875 2.21145,-0.64063 5.97941,7.78316 3.43755,14.03125 -5.17488,12.72022 -6.20566,29.23656 3.8125,40.46875 6.29273,7.0553 15.31594,16.79952 25.5625,13.34375 11.992,-4.04443 16.65535,-18.5491 17.4375,-29.875 0.59225,-8.57603 4.63443,-2.75525 8.3125,-0.0937 17.31488,12.52953 33.43792,28.02729 54.78125,33.0625 10.34813,2.44128 12.54491,12.58033 29.34375,10.96875 0,0 109.15625,-16.3125 109.15625,-16.3125 8.80853,-7.61913 14.65625,-15.5937 18.15625,-27.9375 0.81687,-2.88093 -4.29346,-5.55404 -4.34375,-9.6875 -0.0868,-7.13453 1.7667,-14.84046 1.21875,-21.9375 -0.2409,-3.12011 2.59499,-5.96533 3.125,-9.125 0.34547,-2.05953 -0.8664,-4.44829 -0.375,-6.4375 1.98727,-8.04457 3.99987,-16.07392 4.9375,-24.4375 1.42111,-12.6761 8.88383,-23.05553 9.375,-36.03125 0.20967,-5.53913 4.21422,0.2818 6.34375,1.5625 1.9993,1.20239 3.07001,3.00876 4.96875,3.25 5.55952,0.70635 11.75613,-3.41572 14.75,-2.03125 1.98269,0.91686 5.11517,4.63172 5.8125,7.21875 0.48659,1.80523 -0.59695,3.1811 0.0625,5 1.14149,3.14856 1.34816,6.99746 1.5,10.5 0.0773,1.78241 -1.929,4.55213 -2.3125,6.53125 -2.63325,13.58919 -1.67824,25.93374 -2.59375,39.71875 -0.30621,4.61038 -2.46875,7.35015 -2.46875,13.03125 0,16.4807 -5e-5,33.90897 4.34375,51.25 l 12.37495,13.9687 53.28125,-35.15625 c -4.3023,-4.11836 -17.98277,-6.13327 -18.125,-9.09375 -0.50241,-10.4576 1.30004,-20.58313 2.25,-31.28125 2.22437,-25.05012 11.01252,-49.65354 11.84375,-75.09375 0.0813,-2.48745 -0.11059,-4.88876 3.375,-4.75 7.13865,0.28419 14.06473,-3.62045 18.21875,-9.53125 -2.98129,8.32817 -5.44715,16.66023 -7.625,25.34375 -3.46715,13.82425 -16.6674,25.08948 -18.4349,39.5625 -1.39496,11.42246 10.28324,17.34525 8.15365,31.6875 -1.82976,12.32303 -1.16638,28.43846 10.4375,36.21875 0,0 30.40625,24.25 30.40625,24.25 10.41632,1.82197 22.97184,-0.44152 32.30974,-4.81342 15.98482,-6.8125 26.70331,-20.15749 40.79289,-30.6348 3.65689,-2.55243 4.05579,-7.62245 6.39737,-11.48464 2.41078,-3.97632 6.75628,-6.75718 10.03125,-10.19214 19.04521,-19.9756 21.28625,-50.4349 17.65625,-76.90625 -2.75585,-20.09673 -13.08304,-38.94368 -28.875,-51.84375 -3.12643,-2.55391 -6.25238,-7.80195 -9.87316,-9.3912 -2.71799,-1.193 -4.31736,0.86449 -7.34743,0.55725 -2.8111,-0.28503 -6.38047,-2.85039 -9.05086,-3.04105 -2.67039,-0.19066 -6.1596,-0.5225 -8.01837,0.23928 -7.53785,3.08923 -10.42204,4.60599 -18.14952,5.35447 -2.37948,0.23047 -4.06794,-4.24685 -7.6106,-4.37421 -5.19575,-0.18678 -11.64239,-0.42937 -13.93106,1.06171 -6.86578,4.47311 -10.45513,6.4462 -15.30317,13.11576 -3.15186,4.3361 -4.18847,9.91363 -8.05958,13.91549 0.36143,-12.12602 -4.29062,-22.94618 -12.09375,-31.90625 -4.77629,-4.39969 -11.33066,-5.9965 -17.875,-7.40625 -2.88837,-0.6222 -5.71703,2.21254 -8.59375,1.9375 -3.39906,-0.32499 -6.76198,-1.31012 -10.15625,-1.34375 -3.30486,-0.0327 -6.65134,1.1046 -9.84375,1.40625 -13.88387,1.31188 -27.59533,2.89577 -41.28125,5.15625 -5.27547,0.87134 -8.25202,9.00601 -11.625,14.4375 0.22894,-6.46463 -0.37738,-8.40373 -3.46875,-13.6875 -2.5839,-4.41641 -8.1515,-10.2483 -12,-13.6875 -5.54784,-4.95782 -9.68951,1.36601 -20.15625,4.96875 -10.03094,3.45274 -11.47918,4.80925 -15.59375,16.09375 -9.83076,26.96155 -14.16642,56.51614 -22.3125,84 -3.80957,12.853 -7.6294,26.81714 -12.625,33.375 -3.8438,5.04774 -3.88323,-7.90622 -4.59375,-14.3125 -0.61396,-5.53561 -2.52872,-8.9262 -2.65625,-14.34375 -0.0625,-2.65435 2.99804,-8.43765 2.15625,-10.90625 -2.56102,-7.51037 -0.71433,-12.92082 1,-19.53125 3.61749,-13.94903 5.522,-29.40525 -0.84375,-43.03125 -2.11555,-4.52836 -2.04531,-8.73405 -6.625,-11.375 -3.23302,-1.86437 1.01065,-4.94007 -4.1875,-7.03125 -7.9436,-3.19566 -11.75059,-4.5276 -19.65625,-7.90625 -7.90566,-3.37866 -12.91051,13.7784 -17,20.3125 -4.79091,7.65483 -4.01804,16.88804 -5.4375,25.5 -0.63403,-19.33709 -11.39446,-38.24232 -28.9375,-47.0625 -14.367,-7.22335 -29.15942,-13.39556 -45.125,-16.59375 -12.56035,-2.51607 -26.64032,-5.07257 -38.15625,2.53125 -8.29314,5.47585 -16.33496,11.26882 -20.90625,20.34375 -10.26154,20.37123 -5.2869,43.79469 -5,65.5 0.0865,6.54113 1.79025,13.95139 -0.75,20 -1.17268,2.79227 -2.82196,3.15446 -4,-0.21875 -2.05719,-5.89053 -0.18297,-12.15607 -2,-18.15625 -0.55751,-1.84101 -0.65722,-3.6963 -0.625,-5.53125 0.083,-4.7238 1.69028,-9.43055 1.09375,-14.09375 -1.23357,-9.64302 -4.52514,-18.93254 -6.8125,-28.28125 -1.36256,-5.56894 -4.78125,-6.37416 -10.03125,-9.8125 -4.72795,-3.09644 1.10263,-8.97645 2.65625,-13.0625 1.67944,-4.41698 -2.81622,-5.77922 -4.90625,-7.40625 -4.68897,-3.65024 -8.6444,-8.2535 -13.53125,-11.5 -6.36448,-4.22814 -6.54398,-5.81707 -19.8125,3.3125 -7.14507,4.91626 -12.85184,4.71875 -19.15625,15.59375 -2.63248,4.54098 -10.21991,4.92131 -13.46875,9.5 -3.64303,3.80506 -6.02655,8.54084 -9.46875,13.6875 -1.67305,2.50148 3.5088,4.78825 2.9375,6.8125 -5.43688,19.26424 -12.05115,38.36932 -20,57.78125 -1.66964,4.07743 -7.30388,9.9465 -10,12.21875 2.37034,-25.02759 4.75785,-49.89977 6.28125,-74.875 0.28086,-4.60453 2.16967,-6.70309 2.375,-11.28125 0.51718,-11.53136 -10.50139,-25.53036 -17.34375,-37.625 -0.66677,-1.17859 -4.12936,-8.4299 -5.46875,-8.375 z m 197.71875,66.75 c 3.69998,0.0337 12.63349,3.65915 12.375,7 -0.35425,4.57863 -12.36704,9.64285 -16.03125,10.9375 -1.31591,0.46494 2.40947,-7.14425 2.90625,-10.59375 0.34751,-2.41298 -1.43449,-7.07127 0.0937,-7.3125 0.19596,-0.0309 0.40958,-0.0336 0.65625,-0.0312 l 5e-5,-5e-5 z m 81.25,21.125 c -0.50345,7.00668 -1.28213,14.14291 -1.301,21.15662 -0.0208,7.74739 0.74781,15.37279 0.76623,23.12337 0.0115,4.85475 -1.43609,10.08615 -1.30898,14.93876 0.42763,16.3258 4.70578,32.32 9.5625,47.90625 0.84091,2.69864 2.9075,6.53566 -2.53125,2.0625 -24.16081,-19.87132 -52.07048,-40.268 -67.15625,-52.40625 -5.91173,-4.75667 9.51179,-6.42863 18.09375,-13.8125 10,-8.60395 17.15612,-9.66578 25.91904,-16.93405 8.73954,-7.24888 15.67236,-16.63692 17.95596,-26.0347 z m 316.84375,10.875 c 8.85115,-0.63435 11.05805,8.17443 10.30454,16.14032 -0.48302,5.10624 3.65756,12.45492 2.19666,17.26593 -1.33128,4.38413 -5.18752,8.97657 -6.1262,13.46875 -2.29864,11.00051 -8.50953,22.04815 -18.8125,28.0625 -3.40757,1.98916 -7.98177,7.86481 -11.3125,5.40625 -8.04189,-5.93606 -1.74814,-18.45095 -2.59375,-27.3125 -0.77715,-8.1442 2.82187,-15.69308 4.6875,-23.52329 1.04672,-4.39316 -0.26314,-9.1066 0.65625,-13.44546 1.93194,-9.11737 12.29225,-15.43842 21,-16.0625 z"
         id="path3699"
         sodipodi:nodetypes="cssssssssssssssssssssssssssssssssssssssssssssssssssssssssssssccsssssssssssssssscccsssscsssccccsssssszsssssccssssscssssssssssssssscssssssssssssssssscssscsssccsssscccssssssssccsssssssss"
         inkscape:connector-curvature="0" />
      <path
         style="fill:url(#linearGradient3055);fill-opacity:1;stroke:none"
         d="m 13.74647,552.04134 c 1.69961,-5.42369 2.547728,-11.18887 3.032743,-16.7626 0.206818,-2.37672 -0.887591,-4.8199 -0.551125,-7.08094 0.263697,-1.77204 3.177853,-3.53436 3.416381,-5.44122 0.381632,-3.05087 -1.122501,-6.30766 -0.575895,-9.35859 0.58286,-3.25328 2.434879,-0.76234 3.72042,-6.62211 2.290755,-10.44175 3.987401,-23.9186 5.062616,-34.65752 0.810953,-8.09955 2.358958,-16.19779 3.403359,-24.16449 0.977084,-7.45321 4.333792,-15.09211 2.218686,-22.3502 -1.700164,-5.8342 -0.126261,-11.61074 2.139391,-17.05644 1.760405,-4.2313 6.384467,-7.5243 8.912484,-11.84699 1.962604,-3.35588 3.156631,-5.81462 5.298128,-5.91082 1.640869,-0.0737 3.052614,1.91365 5.208834,2.81697 3.491126,1.46255 7.937517,-0.92684 10.880916,-2.17904 3.51693,-1.4962 5.506078,-4.53601 8.514747,-4.95486 3.143863,-0.43767 6.496262,1.28455 10.127602,2.77582 4.84528,1.98979 8.4904,7.38762 9.61358,10.56687 1.12319,3.17925 0.64207,4.56117 0.20626,5.67094 -2.94249,7.49289 -3.77015,13.71618 -6.60168,21.52395 -3.50831,9.67393 3.31985,19.1472 6.12973,28.08198 1.48687,4.72793 3.36847,9.01477 4.99665,13.47387 1.762413,4.82672 3.369643,9.62579 4.716503,14.70296 1.32654,5.0006 2.37985,11.48512 4.78384,15.96894 1.694,3.15957 2.96273,-4.58913 3.80076,-9.51495 0.33324,-1.95868 1.62062,-3.72846 1.7524,-4.67534 1.0618,-7.62886 0.25589,-18.10522 0.94878,-26.32797 0.36741,-4.36011 1.28397,-6.76412 1.45718,-10.76244 0.42543,-9.82068 -3.05745,-15.08093 -1.9602,-21.22729 0.28186,-1.57888 3.46949,-2.75116 3.75801,-4.98912 1.16264,-9.0182 2.98,-16.72889 6.78378,-25.92765 5.13376,-12.41507 9.47938,-12.23829 12.19262,-18.04924 1.41999,-3.04119 2.82817,-5.20976 4.39551,-8.15857 1.44635,-2.72117 2.00214,-4.82777 3.64323,-4.10268 1.47019,0.64958 7.22488,10.53102 9.77536,14.26062 3.54447,5.18313 5.96474,11.56199 6.20984,17.76198 0.11176,2.82693 -1.11893,5.48032 -1.4642,8.46585 -2.14315,18.53161 -3.05506,37.41213 -4.11694,56.16434 -1.21536,21.46241 -4.1385,43.23333 -10.21264,63.84839 -1.6207,5.50052 -2.23597,11.58618 -4.0746,17.39424 -0.93601,2.95674 -2.51134,7.0694 -3.81998,10.42636 -1.62541,4.16955 -2.61158,10.14163 -7.62664,11.52321 -5.50815,1.51742 -11.45061,1.93218 -16.22542,4.71649 -8.45607,4.93094 -13.31383,-2.36993 -18.671003,-7.53064 -8.07394,-7.77786 -10.22992,-19.10217 -16.36092,-28.01107 -2.674128,-3.88575 -4.735011,-7.80404 -6.223896,-12.33012 -1.375844,-4.18244 -1.099978,-9.08613 -4.41834,-12.01206 -1.672447,-1.47466 -2.519189,-11.27934 -4.716492,-6.78217 -3.308599,6.77163 -3.597172,14.83168 -6.075683,22.96401 -2.229054,7.31383 -3.922137,15.58821 -5.659089,22.92112 -0.613116,2.5884 -2.395657,4.67634 -2.648555,7.09346 -0.321008,3.0681 3.486002,3.27886 2.402073,5.16506 -1.91492,3.33225 -8.312377,7.43604 -9.542692,11.22321 -0.611432,1.88212 0.525229,3.07598 -2.398487,4.63037 -4.269595,2.26994 -11.251397,3.92358 -16.514812,5.33391 -1.118781,0.29978 -2.190644,0.61374 -3.016388,-0.29825 -7.519511,-8.30489 -7.230758,-19.87375 -6.026736,-30.38954 z"
         id="path2932"
         sodipodi:nodetypes="cssssssssssssssszssssssssssssssssssssssssssssssssssssssc"
         inkscape:connector-curvature="0" />
      <path
         style="fill:url(#linearGradient3057);fill-opacity:1;stroke:none"
         d="m 236.57934,572.30336 c -1.98235,-3.38473 -3.40235,-7.13609 -4.71649,-10.86665 -2.76361,-7.84531 -0.9899,-15.91976 -0.49877,-24.06021 0.41507,-6.87969 -0.43228,-12.83777 -0.009,-19.76752 0.25117,-4.11199 0.1784,-7.41534 -5.42499,-5.69423 -8.93528,2.74451 -18.81854,4.43387 -26.45898,9.37058 -4.17458,2.69732 -4.54078,8.48572 -5.62851,13.66226 -1.96491,9.35102 -5.21253,18.3416 -7.5567,27.52268 -0.98329,3.85112 -3.70808,6.91342 -4.77202,10.84602 -1.20921,4.46956 -6.13246,5.54504 -11.77769,6.91667 -4.51113,1.09607 -7.72006,1.79631 -10.98893,-0.0715 -3.93999,-2.25128 -9.26969,-5.2418 -11.00126,-9.12341 -3.2184,-7.2146 2.77037,-16.94858 4.6238,-25.07889 1.86238,-8.16953 7.78745,-17.89435 2.05037,-25.81997 -4.49463,-6.20921 -1.83566,-15.82923 2.22198,-21.52371 4.14689,-5.81975 7.68337,-11.36783 12.57229,-16.66033 2.94601,-3.1892 3.3535,-7.56087 5.45076,-11.13566 3.20975,-5.47106 4.17445,-12.55897 6.73536,-18.90518 5.26265,-13.04141 9.70791,-26.36709 13.57604,-39.03714 0.7214,-2.36297 -2.21694,-4.15738 -1.74012,-6.14933 0.80478,-3.36204 4.32822,-7.25452 6.39506,-9.97722 3.76248,-4.95641 10.65416,-4.21605 13.61793,-9.69661 1.63365,-3.02093 3.30684,-5.82342 6.61492,-7.41216 6.4702,-3.10739 12.15998,-8.75956 18.55327,-11.05159 5.64996,-2.02555 12.14371,7.84255 17.6526,11.14842 7.60912,4.56623 -4.61736,14.87448 -0.0922,19.80851 2.19966,2.39841 6.08881,2.81059 8.66208,4.92583 4.21649,3.46598 4.41746,11.30687 5.79174,16.89627 1.62745,6.61912 5.45897,13.6981 3.19402,20.53751 -2.66585,8.05001 1.60193,15.49437 0.8659,23.61417 -0.46997,5.18457 1.023,9.71831 3.91086,13.48083 4.44586,5.7924 -2.97893,10.43433 -4.92584,15.55817 -2.54754,6.70455 -0.1501,14.84575 -1.14714,22.09068 -0.8694,6.31744 -1.36781,13.04939 -3.42027,18.90403 -2.0596,5.87502 1.47346,13.79164 -2.68654,18.55354 -4.07752,4.66748 -7.69328,10.91449 -12.53818,15.43432 -3.50933,3.27387 -10.28034,16.00204 -12.17978,12.44753 -1.55196,-2.90426 -3.22494,-6.48383 -4.92557,-9.68671 z m -14.8663,-98.89733 c 3.12771,-2.09091 9.82911,3.07044 9.64232,-3.15672 -0.20551,-6.85132 0.50472,-12.5504 -0.8659,-17.77233 -1.68962,-6.43729 -9.01978,10.9987 -10.31947,15.2466 -0.60211,1.96795 -3.41325,8.99579 1.54305,5.68245 z"
         id="path2934"
         sodipodi:nodetypes="cssssssssssssssssssssssssssssssssssssccssss"
         inkscape:connector-curvature="0" />
      <path
         style="fill:url(#linearGradient3059);fill-opacity:1;stroke:none"
         d="m 403.19784,582.51411 c -5.65785,-3.71263 -6.65888,-3.06286 -13.75915,-5.12062 -7.44965,-2.15901 -14.1213,-5.2287 -20.13745,-9.86689 -3.41673,-2.63414 -6.96706,-4.92729 -10.31199,-7.10487 -6.06264,-3.94683 -12.09099,-9.79133 -18.53096,-13.89788 -2.658,-1.69492 -8.80198,-6.72915 -12.05765,-8.68867 -3.12916,-1.88338 -3.76099,-0.21568 -4.64827,6.39042 -1.32074,9.83336 -3.38426,20.91907 -10.19253,28.57863 -7.65155,8.60828 -18.2751,-2.90949 -23.88148,-9.40624 -6.81923,-7.90223 -6.00831,-17.49965 -4.06588,-26.93666 1.2374,-6.01174 4.42705,-12.28399 3.76043,-18.47238 -0.35116,-3.25996 -2.69774,-6.62915 -5.06504,-9.65956 -4.53935,-5.81088 -9.5798,-16.02755 -3.05334,-23.05833 3.57097,-3.8469 8.84151,-7.59467 10.73949,-11.87307 1.64216,-3.70173 0.65889,-7.32444 0.48255,-12.22254 -0.31277,-8.68773 -0.53465,-17.2021 -1.13175,-25.85016 -0.72092,-10.44123 -1.39369,-20.9111 0.12867,-31.32206 0.9769,-6.68074 4.6919,-13.04032 7.73649,-18.38189 2.03946,-3.57813 4.01832,-7.12279 8.26892,-9.16497 7.19615,-3.45735 13.35902,-9.63568 21.2036,-9.8584 7.5674,-0.21484 15.04629,2.45119 22.25025,3.87319 9.42107,1.85963 19.28212,3.84663 27.20746,8.52687 7.56928,4.46997 16.01161,7.09218 22.98612,12.57839 6.52665,5.13392 11.23859,12.11716 13.84739,20.12597 3.12511,9.59387 5.45004,20.18018 1.10818,29.93062 -2.77005,6.22064 -5.96043,12.05885 -10.76261,16.25125 -4.35188,3.79928 -8.6501,7.8352 -13.59694,10.17417 -6.13031,2.89854 -12.36347,6.58583 -18.26966,10.6772 -7.86407,5.44765 -21.96841,6.71157 -26.04702,11.86287 -2.66448,3.36526 9.07202,10.00972 14.07186,13.70111 11.229,8.2904 23.06367,16.63297 33.81448,25.76149 8.14644,6.91715 17.08297,12.46542 25.36609,19.27799 5.32856,4.38255 9.99887,8.76985 15.52861,12.54484 6.24771,4.26512 16.46345,12.42255 22.21393,17.55179 0,0 -38.05546,10.40277 -38.05546,10.40277 -10,-2.20277 -13.6836,-5.05151 -17.14734,-7.32438 z M 354.36797,432.83224 c 6.13973,-3.86572 10.90689,-11.3159 1.00623,-15.15072 -6.65525,-2.57777 -20.43172,-10.29778 -22.1548,-7.33213 -0.87233,1.5014 1.62399,4.46205 1.95451,6.80976 0.61763,4.38709 -0.90914,9.17296 -1.81297,13.34498 -0.81648,3.7688 -6.37373,17.59868 -0.0649,14.77351 7.44218,-3.3327 14.1054,-8.05911 21.07193,-12.4454 z"
         id="path2938"
         sodipodi:nodetypes="cssssssssssssssssssssssssssssssssccscssssss"
         inkscape:connector-curvature="0" />
      <path
         style="fill:url(#linearGradient3061);fill-opacity:1;stroke:none"
         d="m 528.23738,572.72829 c 0,0 -73.95055,-7.71888 -73.95055,-7.71888 -4.22997,0.41084 -11.66805,-7.64702 -13.69626,-11.4832 -1.98585,-3.75608 -3.90235,-7.10426 -4.71648,-11.88162 -0.98393,-5.77378 -3.88106,-11.3298 -4.42469,-17.38156 -1.02819,-11.44605 -4.12878,-22.77333 -2.92203,-34.57663 1.76646,-17.27792 -1.86027,-34.92112 0.85923,-52.2317 1.27781,-8.13376 2.10216,-16.30372 2.78597,-24.36859 0.42209,-4.97805 3.68784,-8.4596 5.73148,-12.52392 1.97582,-3.92945 3.99607,-11.33703 8.36496,-11.1118 4.1473,0.21381 8.92359,3.204 13.20339,5.02191 2.74971,1.16798 3.51179,4.45512 4.99754,6.73539 0.99386,1.52532 3.85468,0.83862 4.68136,2.70458 1.62773,3.67409 2.99661,8.66057 4.78458,12.88962 3.09147,7.3122 1.0183,15.32896 0.36854,22.90051 -0.59072,6.88355 -2.87271,13.57137 -3.84274,20.42452 -0.57861,4.08781 0.83062,7.66927 0.65732,11.23365 -0.12889,2.65089 -1.71529,2.02188 -1.71529,8.30672 0,4.69958 0.66201,9.13089 1.46377,13.7307 0.67315,3.86192 0.57767,7.81848 1.03844,11.70727 0.66632,5.62359 1.84752,12.47607 4.6281,16.89098 3.86482,6.13642 10.56238,-7.27348 13.57084,-11.62788 4.22348,-6.11298 5.71341,-14.48486 7.68308,-21.5028 1.75763,-6.26243 2.60511,-12.75932 4.71649,-18.83741 2.00903,-5.78346 2.98864,-12.10246 4.92584,-17.95566 2.01914,-6.1008 3.03447,-12.53186 4.20899,-18.94209 1.4456,-7.88974 3.81699,-15.81957 6.17425,-23.68044 2.02552,-6.75461 4.68109,-13.26516 7.37252,-20.05099 0.49804,-1.25569 1.19908,-1.94984 2.2997,-2.58469 6.70183,-3.86565 11.01715,-5.86831 18.09392,-9.11309 1.63212,-0.74834 2.82099,-0.60622 3.94408,0.61851 4.84688,5.28554 10.88717,10.77155 11.63055,17.47967 1.37225,12.38297 -2.78473,24.19323 -2.95659,36.48098 -0.15922,11.38359 -3.54276,22.51813 -7.07791,33.24389 -1.10008,3.33766 -2.9825,6.22464 -3.66576,9.64973 -0.79463,3.98342 -0.62382,8.4089 -1.084,12.45025 -0.69784,6.12846 -4.23026,12.95819 -4.9992,18.19079 -0.16377,1.11445 0.91408,2.52385 0.67059,3.61974 -0.63674,2.86587 -2.693,5.66748 -2.63924,8.74196 0.10025,5.73326 0.21021,13.77553 -1.05264,20.02646 -1.80517,8.93535 3.31781,9.96307 3.05298,15.19482 -0.18169,3.5893 -2.99277,8.24691 -5.49885,10.98484 -2.52881,2.76276 -5.05775,6.17154 -7.66628,8.34546 z"
         id="path2940"
         sodipodi:nodetypes="ccssssssssssssssssssssssssssssssssssssssssc"
         inkscape:connector-curvature="0" />
      <path
         style="fill:url(#linearGradient3063);fill-opacity:1;stroke:none"
         d="m 598.58247,572.83241 c -1.54696,-7.56334 -1.75639,-15.49067 -2.89555,-23.21737 -1.78943,-12.13731 -0.76431,-24.59818 0.93317,-36.77075 1.58629,-11.37522 0.72226,-23.11133 2.96605,-34.30568 0.77322,-3.85763 2.41729,-7.91403 2.21316,-11.83774 -0.17947,-3.44977 -1.82245,-5.64115 -1.51128,-8.63755 0.14579,-1.40389 1.72042,-1.67038 1.7855,-3.47287 0.10168,-2.81637 -5.13982,-6.01664 -3.01377,-8.35329 1.86793,-2.05296 4.31616,-3.36799 4.28625,-6.73168 -0.072,-8.09575 -8.54464,-0.18291 -13.0998,-0.17036 -4.53712,0.0125 -9.35592,2.49354 -13.71986,2.46302 -2.67316,-0.0187 -5.20685,-1.43289 -7.03811,-4.41599 -2.16093,-3.52013 -6.76855,-6.8033 -7.0128,-10.11927 -0.10817,-1.46845 1.74165,-3.19292 3.25189,-5.58829 2.65209,-4.20646 2.21659,-9.34113 4.78086,-13.70939 1.79059,-3.05028 3.71402,-4.29003 5.94081,-9.32095 2.22679,-5.03092 8.33225,-8.65542 15.47847,-9.24687 10.55531,-0.87358 21.22205,-2.97696 31.89243,-3.79626 2.25663,-0.17327 5.16881,-1.2797 7.82982,-1.22246 5.5534,0.11946 10.85916,1.7601 12.97413,1.77341 1.55607,0.01 3.75024,-1.1083 4.46309,-1.11603 2.6154,-0.0284 4.9425,1.2803 7.49026,1.71042 5.46614,0.9228 9.3698,3.49959 11.72761,8.62878 2.21899,4.8272 4.18537,9.46854 5.22292,14.95613 1.29253,6.83614 -6e-4,14.06644 -6.0456,18.44095 -4.50492,3.26003 -10.90912,3.13924 -15.36652,3.01178 -1.82902,-0.0523 -2.48168,0.5415 -2.81541,2.93216 -0.83789,6.00219 -1.39152,13.39677 -1.72428,19.32076 -0.43228,7.69564 -2.62294,14.43337 -3.12317,21.88752 -0.50429,7.5146 -3.90378,14.13889 -4.56742,21.56835 -0.59396,6.6495 -2.62601,12.87566 -3.41888,19.28465 -0.85893,6.94296 0.3357,14.17659 -1.18818,20.98156 -1.32394,5.9121 -2.47354,12.21153 -1.22534,16.87059 0.38204,1.42599 4.63074,0.99822 4.34772,2.56569 -0.24658,1.36565 -5.0484,1.75732 -5.08862,6.20261 -0.051,5.63064 -5.80094,10.65428 -8.36096,12.67184 -2.56002,2.01756 -8.47475,7.45744 -12.51026,6.64066 -5.60266,-1.13396 -4.04016,-1.8329 -11.83135,-6.74129 -0.99295,-0.62555 -1.76599,-1.86078 -2.02698,-3.13679 z"
         id="path2944"
         sodipodi:nodetypes="csssssssssssssszssssssssssssssssssszsss"
         inkscape:connector-curvature="0" />
      <path
         style="fill:url(#linearGradient3065);fill-opacity:1;stroke:none"
         d="m 668.40064,553.39799 c -4.72496,-6.28221 -5.23895,-17.45663 -4.38212,-25.6974 0.96535,-9.28459 -0.67706,-17.84677 -5.61594,-26.06071 -4.76805,-7.92983 1.30684,-17.89161 5.85656,-25.16377 3.14745,-5.03081 4.48285,-10.26423 7.59809,-15.01505 2.80896,-4.28374 3.02557,-10.03719 4.71649,-15.06137 1.81103,-5.38109 4.77458,-10.25107 6.90858,-15.77349 2.70806,-7.00797 4.92386,-14.36218 8.46343,-21.05998 3.52039,-6.66153 11.3205,-12.36902 18.98828,-14.07895 6.9189,-1.54293 9.72866,8.59546 14.94084,5.22398 4.42726,-2.86375 10.34709,-2.99651 15.5086,-4.71649 4.92497,-1.64115 10.33109,-3.45387 14.41908,-0.35841 3.28593,2.48813 8.30386,0.24703 10.99429,2.89976 5.98736,5.90347 13.17004,10.44469 18.2072,17.36246 5.63953,6.85483 9.6666,14.58479 12.11248,23.21229 6.13339,21.63467 5.80923,45.2752 -1.53092,66.24814 -4.16348,11.89627 -13.95803,20.90722 -21.658,30.64057 -3.22815,4.08063 -3.60148,8.64678 -9.73227,11.17765 -6.57937,2.71605 -8.00912,12.73128 -15.57417,12.15276 0,0 -25.03402,17.6576 -25.03402,17.6576 -8.51126,1.24833 -17.26684,5.24061 -25.81854,1.9927 0,0 -29.36794,-25.58229 -29.36794,-25.58229 z m 50.14573,-16.32083 c 3.54272,-0.86752 5.97535,-3.01608 8.91122,-4.71649 3.96167,-2.29453 7.99185,-5.77989 11.628,-9.19277 3.35217,-3.14634 5.93286,-7.08474 7.88026,-10.95778 2.57817,-5.12755 3.30787,-11.72975 6.9376,-16.69699 5.13549,-7.02786 5.4325,-16.41141 4.09253,-24.34791 -1.32655,-7.85696 -1.36808,-17.65565 -8.51865,-23.53714 -5.35135,-4.4016 -11.22197,-4.65242 -17.17738,-1.57618 -6.36315,3.28685 -13.35781,7.06675 -16.79852,13.37919 -2.44553,4.48667 -3.59307,9.6466 -4.05993,14.97098 -0.6342,7.23296 -4.87185,13.81168 -4.05992,21.06086 0.81812,7.30442 -0.033,14.13624 -0.9793,21.33046 -0.74428,5.65846 1.06481,11.0852 3.51675,15.71636 1.44666,2.7324 5.5312,5.32558 8.62734,4.56741 z"
         id="path2946"
         sodipodi:nodetypes="csssssssssssscsssscccccsssssssssssss"
         inkscape:connector-curvature="0" />
      <path
         sodipodi:nodetypes="cccccccccccccccccccccccccccccccccccccccccccccccccccccccccccccccccccc"
         id="path3673"
         d="m 477.99439,560.99174 c -10.11138,0.46128 -16.48711,13.4018 -10.875,21.75 0.47495,2.73648 2.03489,5.04783 3.4375,7.40625 -5.57611,1.10191 -11.19167,6.02033 -16.84375,4.125 -6.97609,-5.68872 -20.47633,-4.34593 -22.71875,5.53125 -1.91299,5.54154 -0.31911,11.8827 1.09375,17 -8.63149,-1.03867 -20.3199,2.67562 -21.25,12.65625 -1.28689,7.09963 3.68606,13.34516 6.46875,19.03125 -0.68833,6.03976 -7.86998,4.40454 -11.0625,8.25 -9.96685,8.27191 -8.43066,24.11245 -0.21875,33 2.58782,3.21305 5.80177,5.9137 9.34375,8.03125 -4.18399,8.75517 -13.60002,17.64624 -10.28125,28.125 3.68451,9.20735 17.93436,11.87908 23.875,3.46875 2.08617,-1.27426 4.76095,-6.88416 5.53125,-2.0625 6.2398,9.37825 19.55326,10.06329 29.5625,7.875 17.21749,-4.16038 32.07697,-15.708 42.09375,-30 7.73857,14.5277 19.07393,30.31081 36.5625,32.84375 4.31597,0.31639 8.85157,-2.71081 12.8125,-2.09375 5.41479,6.54383 14.74658,3.36192 20.6875,-0.5625 8.77567,-4.87397 15.22026,-12.6099 21.28125,-20.46875 8.44694,6.85883 20.89227,13.44608 31.3125,6.5 4.74222,-2.57595 8.68464,-6.37554 12.84375,-9.78125 6.20711,8.86997 17.31153,17.61819 28.75,13.78125 8.76581,10.65999 25.43845,11.21461 37.625,6.4375 6.91113,-1.90948 11.38832,-7.75056 16.59375,-12.21875 1.50654,10.5816 8.38678,21.28222 19.59375,23.25 9.92059,3.35226 21.53888,-0.37439 27.87359,-8.56929 1.92653,-1.24355 3.18102,-4.62065 5.25141,-1.68071 6.41974,3.45489 12.5302,10.04481 20.5,8.125 8.06797,-1.96189 15.04866,-7.8704 20.09375,-14.21875 2.00879,-4.39528 3.28615,-9.90815 8.40625,-11.53125 2.26278,-4.1588 4.08458,-0.32269 6.16419,2.21654 7.72494,9.75784 20.06388,19.60105 33.36706,15.93971 14.24332,-4.37 17.78754,-22.31375 13.4375,-35.03125 -2.7012,-8.72215 -10.87488,-14.05463 -16.34375,-20.875 -3.1096,-2.83955 -7.80401,-5.57525 -10.71875,-7.53125 15.87655,-0.30073 30.36453,-14.75839 28.75,-30.96875 0.2374,-10.22274 -10.56106,-16.63412 -19.75,-17.1875 9.75067,-7.14674 11.42369,-23.11417 2,-31.3125 -7.4857,-8.58905 -21.69806,-13.48234 -31.26722,-5.34807 -7.71057,5.06757 -16.24672,13.35503 -26.10778,11.37932 -3.86801,-2.6423 -9.6852,-0.0833 -12.1875,-4.8125 -7.67267,-6.61465 -13.47143,-16.38816 -23.90625,-18.78125 -7.0881,-2.10481 -14.62687,-1.43693 -21.8125,-0.84375 -8.66995,2.05972 -13.03967,13.47076 -7.3125,20.5 2.62798,3.62167 5.89061,8.31474 2.75,12.625 -5.17892,13.64209 -12.56901,26.44061 -17.59375,40.03125 -3.98734,-10.23626 -20.09919,-9.50113 -24.28125,0.28125 -0.46664,-1.75224 0.70405,-8.3117 1.00257,-11.91365 1.8127,-16.28682 5.28069,-33.52282 1.49743,-49.71135 -3.81195,-5.27912 -10.53921,-7.54256 -14.25,-12.90625 -6.06179,-4.83026 -15.36773,-4.6175 -21.3125,0.25 -12.01669,-0.63595 -17.40102,12.20687 -26.4375,17.5625 -8.51402,5.47689 -18.16118,10.01109 -28.28125,11.6875 -6.65923,-10.24699 -20.44881,-17.67396 -32.34375,-12.03125 -9.25425,3.09931 -17.089,14.77705 -11.125,23.96875 2.46281,6.35054 4.47761,13.1734 9.28125,18 0.53886,6.16117 -2.10117,12.23064 -2.00936,18.49093 -2.34343,17.5109 -5.79943,35.16331 -13.86564,50.85282 -12.00863,-3.25388 -22.8517,-13.04332 -29.84375,-21.34375 12.34629,-1.08448 23.65832,-14.52686 18.3125,-26.84375 -0.56325,-2.31848 -4.62423,-3.78895 -2.03125,-6.125 2.83385,-6.18635 6.44896,-13.2659 3.25,-19.9375 2.88,-4.21213 4.03576,-9.82384 4.5,-15.03125 2.86672,-10.76669 -7.83596,-18.50428 -15.6875,-23.5 -6.26195,-3.70187 -13.63884,-5.64893 -20.96875,-5.125 -0.32191,-8.12499 -6.89476,-14.60104 -14.625,-16.15625 -9.04023,-3.57719 -18.88873,-4.74018 -28.59375,-4.46875 z"
         style="fill:#000000;fill-opacity:1;stroke:none"
         inkscape:connector-curvature="0" />
      <path
         style="fill:#000000;fill-opacity:1;stroke:none"
         d="m 465.61939,547.17924 c -10.11138,0.46128 -16.48711,13.4018 -10.875,21.75 0.47495,2.73648 2.03489,5.04783 3.4375,7.40625 -5.57611,1.10191 -11.19167,6.02033 -16.84375,4.125 -6.97609,-5.68872 -20.47633,-4.34593 -22.71875,5.53125 -1.91299,5.54154 -0.31911,11.8827 1.09375,17 -8.63149,-1.03867 -20.3199,2.67562 -21.25,12.65625 -1.28689,7.09963 3.68606,13.34516 6.46875,19.03125 -0.68833,6.03976 -7.86998,4.40454 -11.0625,8.25 -9.96685,8.27191 -8.43066,24.11245 -0.21875,33 2.58782,3.21305 5.80177,5.9137 9.34375,8.03125 -4.18399,8.75517 -13.60002,17.64624 -10.28125,28.125 3.68451,9.20735 17.93436,11.87908 23.875,3.46875 2.08617,-1.27426 4.76095,-6.88416 5.53125,-2.0625 6.2398,9.37825 19.55326,10.06329 29.5625,7.875 17.21749,-4.16038 32.07697,-15.708 42.09375,-30 7.73857,14.5277 19.07393,30.31081 36.5625,32.84375 4.31597,0.31639 8.85157,-2.71081 12.8125,-2.09375 5.41479,6.54383 14.74658,3.36192 20.6875,-0.5625 8.77567,-4.87397 15.22026,-12.6099 21.28125,-20.46875 8.44694,6.85883 20.89227,13.44608 31.3125,6.5 4.74222,-2.57595 8.68464,-6.37554 12.84375,-9.78125 6.20711,8.86997 17.31153,17.61819 28.75,13.78125 8.76581,10.65999 25.43845,11.21461 37.625,6.4375 6.91113,-1.90948 11.38832,-7.75056 16.59375,-12.21875 1.50654,10.5816 8.38678,21.28222 19.59375,23.25 9.92059,3.35226 21.53888,-0.37439 27.87359,-8.56929 1.92653,-1.24355 3.18102,-4.62065 5.25141,-1.68071 6.41974,3.45489 12.5302,10.04481 20.5,8.125 8.06797,-1.96189 15.04866,-7.8704 20.09375,-14.21875 2.00879,-4.39528 3.28615,-9.90815 8.40625,-11.53125 2.26278,-4.1588 4.08458,-0.32269 6.16419,2.21654 7.72494,9.75784 20.06388,19.60105 33.36706,15.93971 14.24332,-4.37 17.78754,-22.31375 13.4375,-35.03125 -2.7012,-8.72215 -10.87488,-14.05463 -16.34375,-20.875 -3.1096,-2.83955 -7.80401,-5.57525 -10.71875,-7.53125 15.87655,-0.30073 30.36453,-14.75839 28.75,-30.96875 0.2374,-10.22274 -10.56106,-16.63412 -19.75,-17.1875 9.75067,-7.14674 11.42369,-23.11417 2,-31.3125 -7.4857,-8.58905 -21.69806,-13.48234 -31.26722,-5.34807 -7.71057,5.06757 -16.24672,13.35503 -26.10778,11.37932 -3.86801,-2.6423 -9.6852,-0.0833 -12.1875,-4.8125 -7.67267,-6.61465 -13.47143,-16.38816 -23.90625,-18.78125 -7.0881,-2.10481 -14.62687,-1.43693 -21.8125,-0.84375 -8.66995,2.05972 -13.03967,13.47076 -7.3125,20.5 2.62798,3.62167 5.89061,8.31474 2.75,12.625 -5.17892,13.64209 -12.56901,26.44061 -17.59375,40.03125 -3.98734,-10.23626 -20.09919,-9.50113 -24.28125,0.28125 -0.46664,-1.75224 0.70405,-8.3117 1.00257,-11.91365 1.8127,-16.28682 5.28069,-33.52282 1.49743,-49.71135 -3.81195,-5.27912 -10.53921,-7.54256 -14.25,-12.90625 -6.06179,-4.83026 -15.36773,-4.6175 -21.3125,0.25 -12.01669,-0.63595 -17.40102,12.20687 -26.4375,17.5625 -8.51402,5.47689 -18.16118,10.01109 -28.28125,11.6875 -6.65923,-10.24699 -20.44881,-17.67396 -32.34375,-12.03125 -9.25425,3.09931 -17.089,14.77705 -11.125,23.96875 2.46281,6.35054 4.47761,13.1734 9.28125,18 0.53886,6.16117 -2.10117,12.23064 -2.00936,18.49093 -2.34343,17.5109 -5.79943,35.16331 -13.86564,50.85282 -12.00863,-3.25388 -22.8517,-13.04332 -29.84375,-21.34375 12.34629,-1.08448 23.65832,-14.52686 18.3125,-26.84375 -0.56325,-2.31848 -4.62423,-3.78895 -2.03125,-6.125 2.83385,-6.18635 6.44896,-13.2659 3.25,-19.9375 2.88,-4.21213 4.03576,-9.82384 4.5,-15.03125 2.86672,-10.76669 -7.83596,-18.50428 -15.6875,-23.5 -6.26195,-3.70187 -13.63884,-5.64893 -20.96875,-5.125 -0.32191,-8.12499 -6.89476,-14.60104 -14.625,-16.15625 -9.04023,-3.57719 -18.88873,-4.74018 -28.59375,-4.46875 z"
         id="path3665"
         sodipodi:nodetypes="cccccccccccccccccccccccccccccccccccccccccccccccccccccccccccccccccccc"
         inkscape:connector-curvature="0" />
      <path
         style="fill:#ffffff;fill-opacity:1;stroke:none"
         d="m 468.36939,553.27299 c -6.69938,-1.40492 -12.98772,7.14272 -7.9375,12.46875 -0.19205,5.93513 6.93349,10.89983 7.34375,15.375 -9.62142,-0.4648 -17.78041,6.29057 -27.125,6.5625 -4.03818,-3.66991 -11.66192,-7.59394 -15.65625,-1.6875 -2.91957,6.76162 -0.0369,14.57652 2.875,20.78125 0.72181,1.40151 4.14357,4.53247 3.1875,4.71875 -7.15684,-2.98793 -15.90725,-3.34831 -23.1875,-0.8125 -6.86801,4.761 -2.5139,14.59118 2.03125,19.28125 3.64215,4.14142 -0.9595,8.92231 -2.25,13 -2.19464,3.04485 -6.97252,1.23624 -9.4375,4.375 -6.62021,4.69647 -6.78669,14.10843 -2.5625,20.4375 2.98079,6.04955 8.51446,12.08461 15.8125,11.90625 -3.61132,9.3962 -10.22904,17.67812 -13.90625,26.75 0.19358,5.94084 7.68509,11.39027 12.6875,6.625 8.71826,-6.77104 15.06541,-15.9881 22.40625,-24.1875 8.06323,-9.83131 14.77875,-21.34783 19.96875,-32.53125 2.74724,-0.74015 3.98777,0.24543 5.15625,2.65625 2.68226,3.38297 9.04462,7.66936 4.375,12.1875 -7.94411,11.65146 -17.92173,22.11941 -30.09375,29.3125 -4.13998,2.42614 -7.90647,9.31365 -2.53125,12.375 4.90881,2.52608 9.93147,4.6682 15.65625,3.40625 21.62778,-2.49521 38.95314,-18.6561 49.1875,-36.96875 7.41185,15.26637 16.59205,32.5677 33.40625,38.6875 6.47067,0.73047 12.9756,-2.56174 18.96875,-3.21875 -0.32173,4.43631 4.84596,6.92721 8.1875,4.125 13.29442,-4.35068 22.34662,-16.844 29.375,-27.375 3.95236,6.72455 11.93647,9.14627 18.25,12.9375 9.23914,2.09661 16.27343,-6.33471 22.96859,-11.28662 1.79729,-1.4483 3.79912,-3.78546 5.53141,-4.58838 2.66291,7.7911 9.66982,13.42014 16.625,17.3125 4.07467,1.75403 9.1497,0.023 12.3125,-1.8125 5.42813,11.56574 20.4244,12.25519 31.21875,9.09375 6.40166,-1.3606 11.97616,-5.89479 15.0625,-11.28125 6.30616,-0.69511 8.90961,-10.54699 2.53125,-13.0625 -1.32659,-1.87906 -1.99219,-6.59852 1.40625,-5.5625 7.45869,-1.93199 12.4035,-8.85488 17.65625,-14 2.30451,-2.44669 5.22118,-6.38961 7.09375,-8.15625 -2.51609,7.12473 -5.30773,14.59334 -9.3125,20.84375 -9.87403,6.83771 -9.02195,20.80323 -5.15625,30.78125 2.06628,5.00438 6.33173,9.43849 11.8125,9.625 4.78241,3.56701 10.4676,1.73787 15.53125,-0.125 4.76272,-0.10973 5.4354,-5.94651 9.34375,-7.34375 2.98545,-2.45198 2.50189,-8.47728 4.40625,-10.3125 2.20329,3.05266 2.75168,7.43669 6.65625,9.21875 4.13831,1.88612 7.46386,5.05683 11.34375,7.15625 7.27772,1.9698 12.94208,-4.5725 18.3125,-8.3125 3.67032,-3.12104 4.53787,-8.31002 6.3125,-12.1875 7.26606,-4.15316 13.62539,-11.30852 18.15625,-17.4375 -0.84871,2.93879 -4.79338,5.87457 -2.78125,9.5625 2.21262,5.58853 7.86978,8.49627 10.9375,13.375 6.13131,6.13381 16.67108,10.80607 24.90625,6.25 5.56493,-5.13768 9.09176,-13.73538 6.3125,-21.25 0.43403,-5.33389 -2.00061,-10.41273 -6.53125,-13.1875 -4.36944,-4.42035 -7.37985,-10.32559 -13.15307,-13.2917 -6.69283,-3.15121 -13.44942,-10.50035 -21.44068,-8.1458 -2.07444,1.33433 -1.6135,0.48983 0.0625,-0.8125 3.22142,-2.27162 5.89695,-7.15463 9.59375,-7.53125 10.149,4.44229 22.79591,0.53405 28.53125,-8.90625 3.30783,-3.19284 4.07464,-8.13603 3.28125,-12.1875 2.75544,-6.9942 -5.58947,-11.72029 -11.3125,-12.875 -5.91731,-0.21949 -11.81326,-1.22874 -17.6875,-1.21875 -7.54661,0.59941 -12.95045,7.30168 -20.59375,7.3125 11.41643,-6.46442 24.83289,-10.15115 34.71875,-19 5.48073,-5.78763 5.54292,-15.98304 -1.28125,-20.78125 -5.26666,-6.37861 -16.23608,-10.92576 -22.9375,-4.0625 -9.09735,6.24895 -18.95392,13.81889 -30.5,12.8125 -3.24152,-2.61505 -8.10616,-3.34022 -11.625,-1.65625 -1.93714,-6.47173 -9.44412,-8.70904 -12.5,-14.5 -6.28109,-7.04068 -16.41377,-11.61538 -25.8125,-8.53125 -4.14559,-1.41695 -9.81575,-0.38839 -10.5625,4.6875 -1.60408,7.14403 7.90907,10.95466 6.15625,18.3125 -1.422,11.04061 -8.93898,19.92414 -12.32109,30.39884 -6.5822,14.98101 -12.90092,30.07948 -19.39766,45.10116 -0.66873,-9.69218 1.38493,-19.40621 1.78125,-28.875 -1.98666,-6.26525 -12.20402,-5.37663 -13.71875,0.78125 -3.55624,5.62925 -8.01779,10.60476 -12.03125,15.875 -1.38074,-25.72067 6.65115,-51.14922 4.53125,-76.78125 -1.8645,-4.69951 -8.20719,-4.79697 -10.28125,-9.40625 -3.78805,-4.3405 -10.86722,-7.68651 -15.59375,-2.90625 -2.29502,1.07055 -4.19653,2.65338 -6.6875,1.53125 -8.83591,1.57879 -12.27022,11.23877 -19.78125,15.3125 -10.47981,7.51918 -23.19267,12.46796 -35.53125,15 -3.55504,-3.58984 -5.82361,-8.42212 -10.21875,-11.25 -8.00174,-6.71947 -21.72173,-3.57237 -26.375,5.625 -2.30912,4.21031 0.6868,8.17144 2.84375,11.53125 0.52236,4.78624 2.24067,9.35147 6.40625,12.0625 3.51908,6.41859 -0.43565,13.96831 -0.15625,20.90625 -2.27262,20.68346 -7.46949,42.5015 -16.875,60.3125 -6.02918,-1.36597 -12.27725,-2.54417 -17.3125,-6.625 -12.53722,-7.46197 -22.02528,-18.86779 -32.09375,-28.96875 0.92418,-2.79909 4.6263,-4.23034 6.21875,-1.125 6.70891,4.96447 16.84943,2.23305 20.84375,-4.84375 5.24495,-4.99315 2.75967,-15.02372 -4.6875,-16.0625 -2.61524,-0.92191 -4.6975,-1.35621 -0.84375,-1.8125 4.47192,-1.14526 7.37674,-5.68499 6.875,-10.0625 4.7057,-3.23746 1.86645,-10.23114 -0.53125,-13.40625 4.13941,-2.5473 6.97307,-7.87805 5.1875,-12.53125 4.08238,-4.70575 -0.25438,-11.22331 -4.75,-13.65625 -7.95993,-7.92175 -20.59415,-12.85634 -31.34375,-7.6875 0.37446,-5.60721 1.80741,-14.04297 -5.15625,-16.3125 -8.9111,-4.42645 -18.83447,-6.63914 -28.78125,-6.25 z m 19.46875,55.21875 c 3.04951,0.25511 9.42316,0.23538 10.53125,1.15625 -3.29143,1.69375 -6.74837,3.82559 -10.4375,4.0625 0.45865,-1.49835 -2.38763,-5.64362 -0.0937,-5.21875 l -5e-5,0 z m 289.6875,0.4375 c 2.26625,2.99732 6.42623,5.73275 8.28125,8.09375 -6.81979,3.94279 -10.15907,11.97524 -17.5625,15.375 -4.78401,2.51371 -6.74162,7.67609 -7.0625,12.75 -1.12906,3.73511 -3.72111,8.13513 -0.65625,11.65625 -2.33792,0.20384 -5.46993,6.09602 -5.21875,1.59375 -0.25453,-5.86565 -2.68943,-12.56128 -0.4862,-18.08606 8.62702,-9.6825 17.35708,-19.63099 22.5487,-31.57019 l 0.15625,0.1875 z m -132.90625,41.1875 c 0.37715,3.01967 1.26858,5.9625 -2.34375,3.6875 -1.48388,-0.8359 -4.98509,-0.11372 -5.4375,-0.125 2.59987,-0.88994 5.76193,-2.5789 7.78125,-3.5625 z m -43.53125,8.1875 c 2.35407,4.76009 8.43132,7.6157 12.3125,8.71875 -4.61603,2.66311 -10.46574,4.27606 -15.875,2.25 -3.78502,0.23453 2.7947,-7.10258 2.73478,-9.78498 0.3573,0.0198 0.3919,-2.40414 0.82772,-1.18377 z m 212.53125,3.46875 c -1.64979,2.60811 1.91111,6.87481 -2.34845,7.28751 -5.2982,2.29987 -12.01572,4.58659 -16.7453,5.77499 5.87568,-4.8503 13.49526,-8.84595 19.09375,-13.0625 z m -43.53125,2.96875 c 2.28594,2.24775 5.46323,4.35377 8.3125,4.96875 -3.96091,2.12912 -8.77097,2.96575 -11.8125,6.5625 -3.34469,1.95545 0.95,-3.95083 1.1875,-5.5 1.13419,-1.5114 1.41896,-5.63818 2.3125,-6.03125 z"
         id="path3611"
         sodipodi:nodetypes="cccccccccccccccccccccccccccccccccccccccccccccccccccccccccccccccccccccccccccccccccccccccccccccccccccccccccccccccccccccccccccccccccccccc"
         inkscape:connector-curvature="0" />
      <path
         style="fill:url(#linearGradient3067);fill-opacity:1;stroke:none"
         d="m 469.49439,559.39799 c -3.90158,0.0825 -6,0.5 -4.5,2 1,1 6.40625,4 3.40625,4 -1.38197,0 -3.35136,-1 -1.34375,2 2.42987,3.63098 7.67929,13.36888 8.84375,15.5 3.00724,5.50362 -6.15742,3.5 -11.5,4.5 -5.30991,0.99389 -13.90914,4.40629 -19,6 -3.24835,1.01691 -6.18676,0.80849 -8,-0.5 -6,-4.32977 -7.98489,-5.83013 -7.53125,-1.5 0.94521,9 2.46845,13.05205 6.53125,16 1.37818,1 1.37181,2 1.59375,4 0.66328,5.97729 -1.04635,21 -5.59375,30 -1.50987,2.98826 -8.99868,7.5741 -13,9 -4.00133,1.4259 -4.99744,0.37913 2.09375,-5.625 2.76307,-2.3395 5.40626,-5.48972 7.90625,-8.90625 2.53426,-3.46337 5.00278,-5.48098 4.90625,-8.9375 -0.17235,-6.17153 -3.28669,-11.90199 -13.90625,-11.53125 -5.67674,0.19818 -9.49764,-0.62888 -10,1 -0.61682,2 1.3902,7 5.625,12 1.82801,2.15832 1.875,4 1.375,6 -0.69657,2.78628 -4.94204,13.60521 -7,15 -2.05796,1.39479 -5.28741,0.86796 -7.46875,2 -3.86695,2.00682 -5.79848,6.42445 -2.53125,12.4375 3,5.52125 6.5927,9.99568 10.0625,10 3.81501,0.005 6.9375,-5.4375 9.65625,-10.875 1.76962,-3.53924 5.47371,-8.62986 7.28125,-9.5625 1.80754,-0.93264 1.27874,2.07123 -1.6875,8.53125 -3.33554,7.2643 -6.00868,14.41509 -9.3125,21.46875 -3.30382,7.05366 -6.84551,14.19382 -11.6875,21 -3.82891,5.38214 2.19967,-0.3201 2.6875,0 0.48783,0.32009 -1.73031,3.09061 -2,3.59375 -1,1.86563 0.7527,1.50336 5.3125,-3.28125 12.20538,-12.80714 23.97242,-26.5668 32.28125,-42.28125 3.99104,-7.54822 5.54619,-14.87395 8.40625,-23.03125 2.86005,-8.1573 6.01285,-16.98775 8.84375,-25.1875 1.07105,-3.1023 -2.61998,-3.71549 -1.84375,-5.8125 0.74032,-2 2.12094,-1.87906 3,-1 2,2 1.33605,9.0899 0,14 -1.21648,4.47068 -2.56196,9.94304 -5,16 -2.43804,6.05696 -5.3124,12.10476 -3,13 2.20733,0.85456 5,-5 7,-5 1.93131,0 -0.48034,5.65578 1,8 2.96069,4.68845 9,10.18273 9,14 0,6 -12,18 -20,27 -2.48378,2.79013 -11.76216,9.17478 -16,12 -6,4 6.44674,-0.25898 7,1 0.43946,1 -8.02463,3 -2.5,3 6.48623,0 12.23039,-0.61793 17.5,-3 5.26961,-2.38207 10.08054,-5.72073 12,-7 6.00054,-3.99919 12.22621,-10.87925 17,-18 4.77379,-7.12075 7.5,-14 9,-14 3,0 4.46199,7.27395 8,14 2.55585,4.85887 9.88896,16.73034 14,21 4.11104,4.26965 9,7 12,9 l 14.625,-3 c 4.38599,-0.54579 9.16599,-3.94968 11.375,-9 1.48868,-3.40348 -3.86404,-1.27626 -9.8125,-3.96875 -7.55419,-3.41931 -14.74251,-7.9189 -21.1875,-13.03125 -6.44499,-5.11236 -11.82602,-11.55804 -17.65625,-17.59375 -1.93214,-2.00024 -3.96785,-4.09614 -5.90625,-5.25 -1.91735,-1.14133 -0.38873,-4.72285 0.78125,-7 2.33995,-4.5543 7.83353,-7.97288 12.90625,-3.75 2.95884,2.46314 4.70929,2.59375 6.875,2.59375 4,0 4.49665,-2.34473 6,-4 2.38098,-2.62159 4.6464,-4.97778 1.375,-6.8125 -3.92687,-2.20233 -12.95858,-4.16009 -16.375,-3.625 -5.36956,0.841 -6,2.4375 -7,-0.5625 -0.87932,-2.63797 -0.98463,-5.56657 0.625,-9 1.9074,-4.06859 14.49363,-0.36935 17.90625,-0.46875 1.70631,-0.0497 4.16559,-0.92448 4.46875,-2.15625 1,-4.06313 -1.5266,-2.80445 -1,-5.875 0.49714,-2.89873 3,0.98569 4,-1.9375 0.56075,-1.63917 -5.44114,-9.35582 -11,-8.5625 -7.00266,0.99937 -17.82508,4.58976 -22.09375,7.53125 -4.7746,3.29015 -12.71405,3.22944 -13.90625,2.46875 -1.56727,-1 -0.86921,-5.92083 -2.875,-10.53125 -1.45619,-3.34713 -4.125,-3.46875 -5.125,-4.46875 -1,-1 2.46132,-1.92718 6,-2 7.07737,-0.14565 21.20626,0.92064 24.5,2.1875 4.21495,1.62118 12.29288,4.09465 17.5,2.8125 2.60356,-0.64108 7.67807,-3.0171 9,-5 2,-3 -2,-5 -2,-7 0,-2.4317 6,-1 3,-4 -1.62709,-1.62709 -4.62064,-4.19651 -7,-6 -4.75873,-3.60697 -10.3906,-6.36942 -14.3125,-5.6875 -7.32418,1.2735 -12.22074,3.6115 -14.6875,0.6875 -1.23338,-1.462 -1,-7 -1,-10 0,-2.64742 1.30811,-3.84594 -1,-5 -6,-3 -13.74115,-5.9057 -21.46875,-6 -1.63259,-0.0199 -3.13697,-0.0275 -4.4375,0 z m 197.3125,5.5 c -1.18696,0.0745 -0.36264,3.12717 -1.75,3.5 -0.68761,0.18478 -1.14361,-1.34681 -2.125,-1.3125 -0.9814,0.0343 -1.86394,2.2626 -3.15625,2.3125 -2.58461,0.0997 -5.21816,-1.21048 -6.90625,0.46875 -4,3.97902 -11.08398,11.00165 -17.59375,15.6875 -5.37036,3.7552 -22.875,10.83991 -30.875,13.375 -2.1316,0.67548 -8,1.46875 -10,-1.53125 -2.86857,-4.30285 -10,-13 -15,-13 -3,0 -11.65625,3.28125 -11.65625,6.28125 0,4 3.65625,3.71875 3.65625,7.71875 0,5 2.6429,7.08804 5,9.44514 4,4 2.82213,10.83883 2.0625,17.17986 -1.94264,16.2163 -3.78722,32.42075 -9.125,48.0625 -4.64948,13.62477 -11.26753,26.36923 -15.90625,39.8125 10.85493,-3.7457 17.84099,-12.62478 24.03125,-22.3125 8.30212,-12.99279 15.15726,-26.91882 20.28125,-41.5625 1.41402,-4.04109 4.0929,-14.74293 5.34375,-14.625 0.88459,0.0834 0.8567,3.63526 0.25,7.71875 -0.82977,5.58492 1.14673,11.52246 4.59375,15.1875 3.23108,3.43544 7.33952,4.84971 9.875,1.875 2.02115,-2.37128 3.45781,-5.63986 3.59375,-2 0.16549,4.4311 -0.98587,3.72807 -1.90625,10.34375 -0.67781,4.87209 -3.09375,4.53641 -7.09375,6.21875 -2.51254,1.05674 -4.53529,2.23784 -7.34375,2.65625 -3.05091,0.45453 -5.90374,-1.71231 -8.65625,-1 -2.19336,0.56761 -3.72725,2.51912 -5.34375,3.5625 -1.33825,0.86378 0.85168,3.57561 0.34375,4.9375 -0.65176,1.74754 -2.95575,2.67974 -2.375,4 1.83084,4.16226 8.53448,6.58883 12.78125,9.5 2.92574,2.0056 3.59023,2.10016 6.59375,0.65625 10.73107,-5.15883 19.1423,-16.63364 30,-22.0625 2,-1 3.01092,0.40625 1.59375,2.40625 -1.29509,1.82771 -3.72798,4.18207 -3.59375,7 0.17169,3.6042 4,7 8,11 2.71004,2.71004 5.13518,4.32062 7.53125,4.25 4.14918,-0.12228 7.79046,-4.18954 8.0625,-8.25 0.20059,-2.99396 -0.22147,-6.30083 1.15625,-3.75 3.9617,7.33508 3.47304,12.6399 5.25,14.75 4.65437,5.52697 12,7 25.28125,3.34375 4.31925,-1.18906 7.78709,-3.98494 9.28125,-9.0625 0.8289,-2.81683 4.6796,-1.52335 5.4375,-2.28125 0.72639,-0.72639 -0.162,-1.2597 -2,-2.75 -1.2333,-1 -1.90177,-1.58001 -2,-3.25 -1,-17 -4.11991,-33.54347 -0.0937,-50.5625 0.88599,-3.74523 -0.65128,-4.55539 -2.40625,-1.4375 -2.98563,5.30431 -12.16114,15.88717 -14.90625,19.96875 -4.97663,7.39954 -5.27323,11.37636 -6.59375,8.03125 -2.07358,-5.25274 -2.22343,-21.92095 -1.9375,-27.6875 0.78752,-15.88256 3.58516,-31.51723 4.53125,-47.34375 0.20122,-3.36694 1.4276,-11.45187 0.40625,-13.96875 -1.45597,-3.58792 -1.29374,0.95228 -2.65625,-0.59375 -3,-3.4041 -3.92845,-5.74487 -10.75,-10.40625 -0.53938,-0.36857 -0.91359,-0.51718 -1.1875,-0.5 l -5e-5,0 z m 81.59375,4.65625 c -1.33388,0.003 -3.69092,0.376 -5.44079,1.41704 -0.66631,0.3964 -4.00435,-2.01843 -5.00435,-1.01843 -1.25883,1.25884 3.27474,5.71306 4.94514,9.25764 4.28978,9.10291 -1.47683,18.49555 -5.5625,27.40625 -9.84946,21.48131 -18.35376,43.58306 -28.4375,64.9375 -2.62774,5.56479 -1.11461,7.11415 2.5,4.84375 5.21542,-3.27591 13.91002,-13.03679 16.0625,-15.84375 2.43552,-3.17606 8.86096,-10.07971 11.9375,-13.15625 4,-4 4,0 2.96875,9 -1.47016,9.86563 -5.96875,15 -8.96875,25 -0.42203,1.40676 -1.69953,4.22536 -4.24186,5.69828 -4.04939,2.34603 -5.24779,6.30172 -5.24779,12.30172 0,5.57279 1.74658,11.34258 4.48965,15 3,4 2,-0.50288 4,0 1.15714,0.29095 1.97614,2.58873 3,3 2.08833,0.83885 4.68919,1.74474 6.32009,0.328 2.67991,-2.328 2.63133,-0.46162 5.22259,-1.328 2.9909,-1 0.7212,-2.52776 1.45732,-4 1,-2 3.82451,-0.44129 5,-2 0.89961,-1.19289 0.29128,-4.22829 1,-6 1.05194,-2.62972 3,-3 3,-6 0,-4.46989 -0.91052,-10.53452 0,-16 0.92747,-5.5672 4.22413,-13.44826 6,-17 2,-4 0,-4 -2,-2 -3.03932,3.03932 -6.23686,6.18606 -8,7.50447 -1.1187,0.83653 -2.26004,1.04047 -3,-1.50447 -0.58293,-2.00487 -2.19139,-23.95696 -3,-28 -0.4024,-2.012 1.26559,-3.4519 3.5078,-6 3.32989,-3.78415 8.88744,-9.03991 14.3047,-17.21875 5.69165,-8.59311 10.1875,-17.78125 10.1875,-27.78125 0,-4 -2.77518,-3.62342 -5,-6 -2.27903,-2.43448 -4.65371,-5.21094 -6.59375,-7.3125 -6.33557,-6.86303 -10.3819,-7.54424 -15.40625,-7.53125 z m 80.55486,9.84375 c -11.55486,8 -21.04732,15.67623 -35.55486,16 -4.76735,0.10639 -5.46139,-3 -8,-3 -2,0 1.47776,3 -1,3 -1.27481,0 -2,-2.54506 -4,-2 -2.31299,0.63036 -3,5 -0.96875,8.125 2.36876,3.64425 8.96875,9.875 12.96875,12.875 4.22847,3.17135 6.97428,1.56865 11,-1 2.24009,-1.42931 5.63581,-4.09305 9,-6 5.96804,-3.38292 5.72298,-1.56676 2,1 -4.94406,3.40862 -22.06882,13.38875 -24,15 -1.71695,1.43251 0,-2.50717 -2,-1 -4.71758,3.55511 -7.28467,7.68084 -11,11 -2.5889,2.31285 -6.44136,3.46136 -9,7 -1.39433,1.92838 -1.16685,6.14264 -1.53417,8 -0.43951,2.22243 -3.55756,4.14496 -0.46583,6 5,3 9.08559,7.62383 13,9.53417 1.24901,0.60954 3.13536,-1.42251 5,-2.53417 1.41197,-0.84179 3.37357,-0.98379 5,-2 3.36058,-2.09972 8.74293,-6.71677 11,-8 2.87853,-1.63655 2.18559,0.96843 -1.625,5.3125 -5.99355,6.83265 -12.37753,15.02252 -19.375,19.6875 -3,2 -1,-1 -4,1 -2.44766,1.63178 -4.72875,3.55301 -8,5 -3.02266,1.33703 -3.66223,2.2112 -3,3.72833 0.36785,0.84273 -1,1.67821 -1,3.27167 0,1.67755 0.95,1.88719 1,2.76485 0.12077,2.12009 -1.31753,3.72856 -0.51191,5.61196 0.79014,1.84719 2.97149,4.03259 4.51191,5.09273 3,2.06463 -2,1.53046 2,5.05608 1.63669,1.98098 4.33135,2.21737 6,3.47438 2.73773,2.06236 4.44454,4.46418 7,4 1.34808,-0.24487 2.3508,-1.58953 3.50684,-2.46584 2.02388,-1.53416 1.49316,-0.0445 6.49316,-4.53416 5.26129,-4.72428 3,-7 4,-9.48965 0.79654,-1.9831 2.38204,-3.24548 4,-4.05486 5.00618,-2.50434 9.26323,-6.96424 13,-11.45549 3.37354,-4.05468 8.17806,-12.54529 10.17806,-9.54529 1.56892,2.35339 2.80045,6.30997 3.82194,8.54529 1.53065,3.34952 -0.50125,4.51857 -2,6 -2.54216,2.51279 -1,3 4,8 1.38881,1.38881 4.12367,5.87434 6,7 6.33145,3.79839 15.16885,7.49346 17,2 1,-3 3.49609,-5.34613 3.47698,-8 -0.0135,-1.87598 -1.16583,-3.63754 -1.47698,-6 -0.2046,-1.55348 0.63649,-3.78848 0,-5 -1.12022,-2.13226 -3.51259,-2.6345 -5,-4.5091 -2.53881,-3.19969 -4.77134,-7.16866 -7.3125,-9.1784 -4.7987,-3.79517 -18.95458,-12.36428 -19.95458,-11.02316 -0.95211,1.27689 1.89908,2.07866 1.26708,2.71066 -1,1 -3.88305,-2.32897 -5,-1 -0.58161,0.69201 -0.18502,2.38303 1,3.51035 2.04927,1.94948 4,2.48965 1.15625,3.6459 -11.15625,6.84375 -25.54614,9.50214 -38.15625,14.625 -3,1.21875 -1.44133,-2.72064 -1,-4.25821 2.0809,-7.24972 12.50591,-14.06919 18.875,-17.99179 7.56814,-4.66107 18.6058,-14.47788 25.125,-20.99708 2,-2 2,-1.53417 8,0.92132 3.32523,1.36084 8.53479,1.42759 12,-0.45549 4.40182,-2.39206 7.98976,-6.97952 10,-11 1,-2 -2.07799,-2.54303 -2,-4 0.0734,-1.37183 3,-2 2,-4 -0.6923,-1.38459 -4.38533,-2.29764 -6,-3 -4.59784,-2 -6.06712,-0.37281 -9,-0.55518 -2.01714,-0.12543 -2.98578,-1.02045 -6,-1.13189 -5.40633,-0.19987 -9.18628,3.33637 -14,5.68707 -3.45955,1.68941 -8.28412,1.2249 -12,2 -10.97621,2.28954 -21,9 -29.84375,14.90625 -2.01063,1.34279 -2.33431,-2.15986 -1.61825,-3.90625 1.67954,-4.09623 9.71684,-8.31678 13.30575,-11 9.472,-7.08165 22.47045,-13.80536 33.15625,-19 5.88119,-2.85899 9.8198,-3.78475 15,-7.50292 3.47897,-2.49708 5.93019,-5.91635 6,-8.49708 0.12035,-4.44868 -4.26952,-7.47662 -9,-11 -2,-1.48965 -5.27318,-2.50376 -7.44514,-1 z m -178.55486,11 c 4.66151,0.31293 2,14 1,17 -1,3 -3,-2 -7.8125,-7.0625 -2.65028,-2.78795 -7.53964,-4.52763 -9.4375,-3.53125 -8.75,4.59375 -20.19367,16.51999 -26.75,23.59375 -1.05208,1.13511 -1.55749,3.84728 1,3 3.69723,-1.22487 5.87888,-1.49149 9,-2 3,-0.48878 5.48989,7 4.5,8 -1.48206,1.4972 -3.48027,4.65625 -5.15625,4.65625 -2.10887,0 -3.57638,-2.41858 -5.34375,-3.65625 -2.0263,-1.41899 -4.68362,-2.17245 -6,-4 -1.36087,-1.88932 -1.00226,-4.70369 -1,-8 0.002,-3.02674 -0.28481,-5.90429 2,-9 5.19327,-7.08163 16.80542,-9.70749 24,-12.55486 5,-1.97883 9.23092,-3.37158 14,-4.44514 3.99876,-0.90016 2.44242,-2.23882 6,-2 z m -1,25 c 1.35128,3.15247 0.98058,9.00517 0.46875,12.65625 -0.46875,3.34375 -3.80872,-2.69729 -8.46875,-2.6875 -2.41,0.005 -5.25508,1.77318 -6.625,1.03125 -1.37208,-0.7431 -0.71125,-2.72278 -0.96875,-4 -0.21007,-1.04194 -3.29759,-2.0347 -2.96875,-3 0.47376,-1.39073 3.31009,-0.98459 5.9375,-1.625 2.24164,-0.54638 4.3716,-0.49319 6.71875,-1.78125 0.96859,-0.53154 2.90625,-1.59375 2.90625,-1.59375 1.52307,-0.83523 2.33677,-0.54728 3,1 z m -12,16.74819 c 1.81858,0.0213 3.23525,2.58007 2.78125,4.93931 -0.36642,1.90408 -4.70629,4.15145 -6.78125,4.3125 -1.40382,0.10896 -2.34694,-1.95031 0.73136,-7 0.6096,-1 1.99515,-2.26673 3.26864,-2.25181 z m -154.5625,1.00181 c 0.20083,0.0114 0.39445,0.0944 0.5625,0.25 3.611,3.34285 -3.2097,12.39296 -10.3125,13.4375 -7.19926,1.05872 -14.55475,-0.40175 -5.6875,-7.4375 2.8413,-2.25444 6.1555,-4.6929 8.53125,-4.125 3.27143,0.782 5.50047,-2.2045 6.90625,-2.125 z m 171.5625,37.25 c 0,6 -5.14254,-5.75762 -12.32822,-10.14654 -4.67178,-2.85346 -1.66258,0.49303 -2.67178,1.14654 -0.53202,0.34451 -3.21927,-2.17918 -4,-1 -1,1.51035 6,6 2.6875,6.875 -3.45297,0.91211 -7.21283,1.9134 -8.17261,0.125 -1.84931,-3.44593 -1.13709,-11.51249 1.48511,-17 1.06535,-2.22947 3,-1 7,-4 2.09261,-1.56946 3.54572,-1.8189 5.03125,-3 2.5155,-2 -3.47759,-2.94043 -0.0312,-4 0.90727,-0.27893 3.94357,-2.95951 4.30042,-5 0.69953,-4 1.54741,-2.99328 1.69958,-1 0.62167,8.14334 1.31665,15.968 1.99995,24 0.3751,4.40919 3,8 3,13 z m -33,-32.53125 c 1.15711,0.97631 1.27384,2.95103 0,4.53125 -2.02882,2.51678 -6.44715,3.99162 -7,3.34375 -2,-2.34375 5.49546,-9.14445 7,-7.875 z m -125,26.53125 c 1.89404,0 2.91724,2.97373 1.5625,3.65625 -1.10504,0.55672 -4.23164,-3.65625 -1.5625,-3.65625 z"
         id="path2950"
         sodipodi:nodetypes="cssssssscsssssssssssssssssssssssssssssssssscsssssssssccssssssssssssssssssssssssssssssssssccsssscsssssssscsssssssssssssssssssssssssssssssssssssscccsssssssscsssssssssssssssssssssssscsssssssssssssssssssssssssssscsssssssssssssssssssssscsssssssssssssssssssssscssssssssssssssscssssssssscsssscssscccssssssssssssscssccsc"
         inkscape:connector-curvature="0" />
      <path
         style="fill:#000000;fill-opacity:1;stroke:none"
         d="m 663.77564,702.42924 c -3.7992,-0.22907 -5.54424,4.73104 -9.3125,2.8125 -4.41567,-0.62541 -12.73844,0.0961 -11.8125,6.375 1.72328,2.67157 -2.4873,3.49914 -2.8125,6.0625 -1.17812,3.81555 -7.03333,7.13737 -3.6875,11.53125 1.5507,2.85628 5.18521,2.34253 7.5,2.5 3.7509,2.48296 8.39085,-0.92434 11.59375,-0.84375 4.93333,3.21501 10.39566,-2.77627 9.96875,-7.75 0.35342,-3.22123 1.4929,-1.60765 3.5625,-0.78125 -4.81309,1.543 -4.4817,8.51843 0.34375,9.84375 9.61789,3.28842 23.05664,-2.66479 23.0625,-13.8125 -1.48839,-2.93103 1.31301,-2.52629 2.65625,-4.375 2.51031,-4.93823 -3.7787,-8.76773 -8.21875,-7.65625 -4.85726,0.28183 -11.20793,-0.0983 -15.15625,0.3125 -1.22198,-3.03354 -4.53432,-4.59054 -7.6875,-4.21875 z m 173.125,0.59375 c -3.03277,-0.43274 -4.02481,3.94135 -6.96875,2.4375 -5.79979,-0.31719 -15.90912,-0.30668 -16.28125,7.5 -0.0831,2.67943 4.17849,3.40726 1.59375,5.9375 -2.74018,6.20987 1.74048,14.12144 8.9375,13.71875 4.8999,1.58276 13.94499,0.32652 13.0625,-6.46875 -1.0829,-4.62606 -6.80856,-4.71279 -10.21875,-5.6875 2.81642,-1.53303 5.42624,-3.97221 8.625,-3.03125 2.18827,-1.01214 3.63667,-0.77402 5.8125,0 1.97829,0.15148 -1.80898,3.352 -1.71875,4.875 -4.00519,4.4467 -0.4725,14.13177 6.0625,10.125 2.03007,-0.81496 2.72553,-4.68514 4.59375,-1.59375 7.94355,4.72129 16.62015,-3.23718 19,-10.59375 2.77206,-5.68819 -4.58491,-12.33733 -8.75,-7.0625 -1.51127,-1.61887 -3.17988,-2.18181 -2.6875,-4.75 -0.7488,-5.15075 -7.44633,-4.45526 -9.84375,-1.9375 -1.3263,-3.4444 -5.54804,-3.48792 -8.28125,-2.84375 -0.52134,-1.133 -1.94764,-0.58207 -2.9375,-0.625 z m -329.21875,1.90625 c -7.07486,3.32696 -7.39301,12.18707 -9.40625,18.78125 -0.40288,5.789 5.43785,9.30821 10.65625,8.9375 7.17107,1.37164 13.93855,-2.99264 17.0625,-9.25 0.0207,-2.28782 2.46187,-2.16705 2.65625,-1.15625 -4.68289,1.98972 -4.76809,9.88993 0.84375,10.53125 10.82947,3.08924 23.88567,-9.58325 18.4375,-20.15625 -4.80004,-4.72123 -12.94007,-3.09881 -18.6875,-1.125 -2.31022,0.50607 -3.09219,4.00291 -5.375,2.09375 -5.93418,-1.66396 -7.69476,5.44359 -11.5625,7.9375 -3.822,0.98115 0.14103,-4.41691 0.65625,-5.71875 3.59294,-4.28642 1.18709,-12.3858 -5.28125,-10.875 z"
         id="path3938"
         inkscape:connector-curvature="0" />
      <path
         style="fill:#ffffff;fill-opacity:1;stroke:none"
         d="m 664.40064,706.39799 c -3.19182,0.16695 -6.97195,4.29722 -5,7.39481 1.37566,2.16093 6.03808,0.67943 7.65376,-1.39481 1.55786,-2 1.50956,-6.21776 -2.65376,-6 z m 173,0.59036 c -1.56708,0.13892 -2.77315,1.73141 -3.24251,3.16505 -0.46935,1.43364 -0.1523,3.22814 1.39876,3.33834 0.78014,0.0554 2.25052,-1.89753 3.03079,-3.4518 0.78027,-1.55428 0.82074,-3.22958 -1.18704,-3.05159 z m 4.3125,0.62839 c -1.64571,1.09131 -1.92051,3.45421 -1.3125,4.78125 0.60801,1.32704 2.09075,1.81498 3.44283,-0.59645 0.56628,-1.00995 1.09021,-2.24997 0.77655,-3.23487 -0.31367,-0.9849 -1.45688,-1.91146 -2.90688,-0.94993 z m -176.93479,1.78125 c 1.36218,1.34774 -1.37771,4 -2.85121,2.625 -1.5807,-1.47504 1.4735,-3.98811 2.85121,-2.625 z m 187.77854,-0.9063 c -2.67271,0.9063 -4.20871,5.76926 -5.78374,8.9063 -1.71875,3.4233 -4.36598,7.31696 -4.68863,11 -0.16243,1.85416 2.1081,0.65718 3.13018,-0.83515 1.02207,-1.49234 2.04506,-3.69555 2.63272,-4.69376 0.77344,-1.31378 1.78705,-2.97631 3.26921,-3.77511 1.48217,-0.79881 3.09667,-0.51608 1.87766,1.52272 -1.71361,2.86602 -2.20886,5.44736 -0.59365,6.7813 1.61526,1.33394 4.94002,1.19569 7.62485,-0.90635 2.12481,-1.66358 4.37682,-4.17745 5.3751,-7.09365 1.04584,-3.05514 0.22814,-4.45174 -1,-4 -1.22814,0.45174 -1.78978,3.24775 -3,5 -0.70172,1.01601 -1.76478,2.79225 -3.29457,3.68809 -1.75388,1.02707 -3.77985,1.0582 -2.08053,-1.68819 1.84086,-2.97514 2.37515,-5.9999 1.37515,-6.9999 -1.82732,-1.82732 -3.78373,0.62284 -5,0 -0.66731,-0.34173 0.89871,-3.0628 1.46029,-4.22078 0.56158,-1.15799 0.37029,-3.25328 -1.30404,-2.68552 z m -345.03125,1.0313 c -1.946,2.36634 -2.92368,6.07697 -3.85414,9.21075 -0.88407,2.97751 -3.077,8.41192 1.72914,9.25823 3.26519,0.57496 9.58111,1.36378 12,-0.59398 2.28981,-1.85328 3.44592,-3.80682 4.9768,-6.09223 3.49848,-5.2228 -1.75604,-5.00975 -3.50936,-0.90777 -1.6563,3.875 -6.93432,6.58666 -10.43614,4.59375 -4.55758,-2.59375 0.54454,-9.72773 1.9687,-13.09556 1.14062,-2.69733 -1.43255,-4.12722 -2.875,-2.37319 z m 141.21401,3.45787 c 3.97575,-0.20516 6.19429,0.19091 4.00225,1.41713 -4.24288,2.37345 0.30384,5.8494 -0.65376,8.125 -1.30185,3.09372 -7.27471,0.83286 -7.46875,3.79002 -0.25104,3.82574 6.56969,1.98442 8.78125,0.085 1.36894,-1.17573 2.98942,-3.27709 3,-5.00002 0.0106,-1.72293 -1.4248,-3.06343 -1.62364,-4.37498 -0.14103,-0.93025 1.41272,-1.28096 2.25469,-2.94803 0.84197,-1.66708 0.56297,-4.65054 -1.04024,-4.67699 -1.99973,-0.033 -4.71581,-0.12502 -7.59081,0 -2.59489,0.11284 -2.42852,3.72568 0.33901,3.58287 z m 182.06521,-3.58287 c -2.70214,0 -7.8442,-0.15239 -11.30938,1.06245 -2.5028,0.87745 -2.18266,2.93755 -0.68113,2.93755 1.58629,0 3.86884,-0.13881 5.58629,0 2.87833,0.23264 -3.66722,3 -5,6 -1.27644,2.87319 -1.57763,6.88771 1.68479,8.37721 1.12187,0.51221 5.1569,1.42855 8.31521,1.28784 3.15831,-0.14072 5.4399,-1.33849 3.03125,-3.04005 -2.78237,-1.96557 -12.57319,-0.43702 -9.59055,-6.625 1.23036,-2.55257 4.60428,-3.75081 7.06224,-5 1.90625,-0.9688 3.31544,-5 0.90128,-5 z m -142.40422,1 c -1.90977,0 -10,0 -13,0 -3.10644,0 -4,2 0,2 1.75936,0 9.24762,0 13,0 4,0 4,-2 0,-2 z m -155.96875,4.125 c -3.92229,1.58773 -4.65758,3.09221 -3.03125,3.51223 1.62632,0.42001 5.61425,-0.24443 8.03125,-1.10598 4.00357,-1.42709 5.00703,3.46934 1.96875,6.46875 -1.34421,1.32701 -3.87393,1.25967 -6.0293,1.51924 -2.15538,0.25958 -5.68687,2.40586 -3.9707,3.48076 2.92142,1.82979 8.03005,0.51125 11,-2 2.70676,-2.34684 4.74566,-5.3647 5.03125,-8.8438 0.34118,-4.1562 -4.04826,-3.8172 -7.64427,-3.8172 -1.04911,0 -4.39281,0.39621 -5.35573,0.786 z m 140.96875,0.34714 c -4.35347,0.52786 -7,4.52786 -1,3.52786 3.71104,-0.61851 14.18532,-2.03609 12,3 -1.16937,2.69483 -3.89023,3.86186 -7.90625,4.15625 -0.95905,0.0703 -4.09375,-0.28215 -5.63111,0.2686 -2.63837,0.94518 -2.83738,2.52786 2.53736,3.04651 5.5907,0.53949 10.18575,-1.37923 13.125,-5.34641 1.6514,-2.22894 3.43737,-7.51138 -1.125,-8.69202 -2.46627,-0.63822 -9.20519,-0.29966 -12,0.0392 l 0,10e-6 z m -12.56431,2.08674 c -3.13693,0.67143 -4.48073,9.74288 -3.39567,10.56607 1.61305,1.22375 3.1373,-1.28982 3.54699,-3.23245 0.40968,-1.94263 0.72907,-4.17754 1.60049,-5.7363 0.69231,-1.23839 -0.96659,-1.76539 -1.75181,-1.59732 z m -20.68569,7.53482 c -2.84281,3.48968 1.3834,4.50957 3.56714,0.9063 0.97224,-1.60424 2.34896,-4.0005 3.68286,-7 0.89992,-2.02362 -2.04912,-2.6345 -2.78125,-0.84383 -0.95628,2.3389 -2.67426,4.73472 -4.46875,6.93753 z"
         id="path3010"
         sodipodi:nodetypes="cssscsssscssssczzcssssssssssssssssscsssssssscsssssssssscsssssssssscsssscsssscsssccssssssssccsssccsscc"
         inkscape:connector-curvature="0" />
      <path
         style="fill:#ffffff;fill-opacity:1;stroke:none"
         d="m 268.40064,627.11766 c 0,0 -8.15641,-14.71951 -8.15641,-14.71951 0,0 -9.6256,7.01041 -9.6256,7.01041 0,0 13.04626,-18.89093 13.04626,-18.89093 0,0 -32.30883,-0.56153 -32.30883,-0.56153 0,0 -1.70557,3.44189 -1.70557,3.44189 0,0 -19.56527,0 -19.56527,0 0,0 -6.43818,9.04874 -6.43818,9.04874 0,0 -15.2464,-0.51484 -15.2464,-0.51484 0,0 7.30758,-12.60707 7.30758,-12.60707 0,0 -30.21383,0.01 -30.21383,0.01 0,0 -9.4375,12.46967 -9.4375,12.46967 -8.95711,0.23082 -17.91634,-0.13355 -26.875,-0.0312 0,0 -4.50676,5.625 -4.50676,5.625 -10.54167,0 -30.982823,0 -41.524493,0 -5.868919,8.32714 -11.920841,16.48838 -17.875,24.75 16.44772,0.11532 32.89573,0.19551 49.343753,0.25 0,0 4.84191,-5.75 4.84191,-5.75 0,0 14.59858,-0.38777 14.59858,-0.38777 -9.1366,5.99176 -20.37276,10.06806 -31.06549,11.85652 4.48283,7.66336 11.30922,13.35703 16.875,20.15625 19.58614,-5.27914 37.13924,-17.01885 50.71875,-31.90625 0,0 13.75989,0.23845 13.75989,0.23845 -5.28688,5.12678 -20.38975,12.4265 -25.94739,16.7925 0,0 20,14.61146 20,14.61146 7.51057,-2.89633 12.18933,-6.10781 18.28125,-10.01761 0,0 9.95098,8.83471 9.95098,8.83471 15.42754,-5.05529 37.93168,-14.26758 51.11152,-23.92846 -5.64024,8.12487 -11.25364,16.26832 -16.875,24.40625 10.20835,0.006 20.41669,-0.003 30.625,-0.0312 6.42659,-8.53912 12.52052,-18.47745 19.21875,-26.09375 4.76905,2.75597 13.46875,9.5625 13.46875,9.5625 0,0 14.21875,-8.63128 14.21875,-8.63128 0,0 45.22947,0.4035 45.22947,0.4035 0,0 16.86428,-25.11597 16.86428,-25.11597 0,0 -48.125,0 -48.125,0 0,0 -8.25536,10.47503 -8.25536,10.47503 -4.81654,-4.87972 -10.21903,-9.06598 -16.83839,-11.28753 0,0 11.90625,-19.1875 11.90625,-19.1875 0,0 -29.9375,0 -29.9375,0 0,0 -20.84375,29.71952 -20.84375,29.71952 z"
         id="path3766"
         sodipodi:nodetypes="ccccccccccccccccccccccccccccccccccccccccc"
         inkscape:connector-curvature="0" />
      <path
         style="fill:#ff0000;fill-opacity:1;stroke:#ffffff;stroke-width:0.1;stroke-miterlimit:4;stroke-opacity:1;stroke-dasharray:none"
         d="m 308.40064,603.39799 c 0,0 -15.95563,0 -15.95563,0 0,0 -40.13812,57.90625 -40.13812,57.90625 0,0 16.09375,-0.0446 16.09375,-0.0446 0,0 20,-27.86161 20,-27.86161 6.81789,2.90199 10,5.48042 16.0625,10.0312 0,0 16.01753,-10.0312 16.01753,-10.0312 -10.83003,-11.12319 -17.28885,-13.01926 -23.45503,-11.68754 l 11.375,-18.3125 z m -140,1.46875 c 0,0 -8.91143,12.98952 -8.91143,12.98952 0,0 -26.82777,-0.0832 -26.82777,-0.0832 0,0 -9.12063,12.82205 -9.12063,12.82205 0,0 26.04733,-0.067 26.04733,-0.067 -2.62825,4.09518 -13.87934,12.86989 -20.44356,16.0007 -5.21241,2.48606 -15.95732,5.47276 -15.95732,5.47276 0,0 8.69593,9.38472 8.69593,9.38472 16.51745,-4.48909 36.42648,-19.1758 46.01745,-31.01952 0,0 24.44936,-0.0433 24.44936,-0.0433 0,0 7.52628,-11.94507 7.52628,-11.94507 0,0 -22.37395,-0.31991 -22.37395,-0.31991 l 7.99206,-13.12927 -17.09375,-0.0625 z m 67.28125,1.53125 c 0,0 -34.28912,47.86718 -34.28912,47.86718 0,0 7.00787,5.57553 7.00787,5.57553 0,0 15.8333,-4.61033 25.0022,-9.13175 10.30837,-5.08332 20.9018,-12.62652 30.14354,-19.49852 0,0 -5.14574,-9.94025 -5.14574,-9.94025 -6.64161,4.58784 -20.65914,16.76432 -28.33993,16.93004 0,0 16.37313,-21.38232 22.37118,-31.77098 0,0 -16.75,-0.0312 -16.75,-0.0312 l 0,-5e-5 z m -21.90625,3.34375 c -5.375,5.59807 -7.97756,12.40968 -13.1875,18.15625 -9.13517,10.07611 -19.06672,19.67229 -31.25973,25.84375 0,0 10.41598,7.9375 10.41598,7.9375 11.31931,-5.96451 30.67112,-22.75022 37.87978,-33.26278 3.36631,-4.90917 8.40619,-12.07949 10.77647,-17.9955 0,0 -14.625,-0.67922 -14.625,-0.67922 z M 86.279317,623.39799 c 0,0 -9.292894,12.85624 -9.292894,12.85624 0,0 34.189657,0.15034 34.189657,0.15034 0,0 8.81555,-13.00658 8.81555,-13.00658 0,0 -33.712313,0 -33.712313,0 z m 248.965073,0 c 0,0 -8.9495,12.35317 -8.9495,12.35317 0,0 34.31871,0.24565 34.31871,0.24565 0,0 8.53704,-12.59882 8.53704,-12.59882 0,0 -33.90625,0 -33.90625,0 z"
         id="path2993"
         sodipodi:nodetypes="ccccccccccccccscccccccccccscccccccccsccccccccccccc"
         inkscape:connector-curvature="0" />
    </g>
  </g>
</svg>
