<svg width="40" height="40" viewBox="0 0 40 40" fill="none" xmlns="http://www.w3.org/2000/svg">
<path d="M11.5647 12.125H19.4706C19.6235 12.125 19.7559 12.0693 19.8676 11.958C19.9794 11.8467 20.0353 11.7148 20.0353 11.5625C20.0353 11.4102 19.9794 11.2783 19.8676 11.167C19.7559 11.0557 19.6235 11 19.4706 11H11.5647C11.4118 11 11.2794 11.0557 11.1676 11.167C11.0559 11.2783 11 11.4102 11 11.5625C11 11.832 11.1294 12.0078 11.3882 12.0898C11.4471 12.1133 11.5059 12.125 11.5647 12.125ZM11.5647 15.5H19.4706C19.6235 15.5 19.7559 15.4443 19.8676 15.333C19.9794 15.2217 20.0353 15.0898 20.0353 14.9375C20.0353 14.7852 19.9794 14.6533 19.8676 14.542C19.7559 14.4307 19.6235 14.375 19.4706 14.375H11.5647C11.4118 14.375 11.2794 14.4307 11.1676 14.542C11.0559 14.6533 11 14.7852 11 14.9375C11 15.207 11.1294 15.3828 11.3882 15.4648C11.4471 15.4883 11.5059 15.5 11.5647 15.5ZM20.0353 18.3125C20.0353 18.1602 19.9794 18.0283 19.8676 17.917C19.7559 17.8057 19.6235 17.75 19.4706 17.75H11.5647C11.4118 17.75 11.2794 17.8057 11.1676 17.917C11.0559 18.0283 11 18.1602 11 18.3125C11 18.4648 11.0559 18.5967 11.1676 18.708C11.2794 18.8193 11.4118 18.875 11.5647 18.875H19.4706C19.6235 18.875 19.7559 18.8193 19.8676 18.708C19.9794 18.5967 20.0353 18.4648 20.0353 18.3125ZM28.8412 16.7129L23.3176 11.2109C23.2353 11.1172 23.1324 11.0615 23.0088 11.0439C22.8853 11.0264 22.7706 11.0469 22.6647 11.1055C22.5588 11.1406 22.4706 11.2051 22.4 11.2988C22.3294 11.3926 22.2941 11.5039 22.2941 11.6328V24.0781C21.6471 23.6094 20.8941 23.375 20.0353 23.375C19.1059 23.375 18.3088 23.6504 17.6441 24.2012C16.9794 24.752 16.6471 25.4141 16.6471 26.1875C16.6471 26.9609 16.9794 27.623 17.6441 28.1738C18.3088 28.7246 19.1088 29 20.0441 29C20.9794 29 21.7765 28.7246 22.4353 28.1738C23.0941 27.623 23.4235 26.9609 23.4235 26.1875V12.8984L28.0471 17.5039C28.1176 17.5742 28.2 17.6211 28.2941 17.6445C28.3882 17.668 28.4853 17.668 28.5853 17.6445C28.6853 17.6211 28.7706 17.5742 28.8412 17.5039C28.9471 17.3867 29 17.252 29 17.0996C29 16.9473 28.9471 16.8184 28.8412 16.7129ZM22.2941 26.2402C22.2706 26.6504 22.0441 27.0254 21.6147 27.3652C21.1853 27.7051 20.6588 27.875 20.0353 27.875C19.3882 27.875 18.8471 27.6992 18.4118 27.3477C17.9765 26.9961 17.7588 26.6094 17.7588 26.1875C17.7588 25.7656 17.9765 25.3789 18.4118 25.0273C18.8471 24.6758 19.3882 24.5 20.0353 24.5C20.4471 24.5 20.8265 24.582 21.1735 24.7461C21.5206 24.9102 21.7912 25.1152 21.9853 25.3613C22.1794 25.6074 22.2824 25.8652 22.2941 26.1348V26.2402Z" fill="#DEE1EC" fill-opacity="0.7"/>
</svg>
