<svg width="40" height="40" viewBox="0 0 40 40" fill="none" xmlns="http://www.w3.org/2000/svg">
<path d="M20 14.9375C20 14.7883 19.9407 14.6452 19.8352 14.5398C19.7298 14.4343 19.5867 14.375 19.4375 14.375C19.2883 14.375 19.1452 14.4343 19.0398 14.5398C18.9343 14.6452 18.875 14.7883 18.875 14.9375V21.125C18.875 21.2241 18.9013 21.3215 18.9511 21.4073C19.0008 21.493 19.0724 21.5641 19.1585 21.6133L23.096 23.8633C23.2252 23.9331 23.3766 23.9496 23.5179 23.9093C23.6591 23.869 23.779 23.775 23.8518 23.6475C23.9247 23.5199 23.9448 23.369 23.9078 23.2268C23.8709 23.0847 23.7798 22.9626 23.654 22.8867L20 20.7988V14.9375Z" fill="#DEE1EC" fill-opacity="0.7"/>
<path d="M20 29C22.3869 29 24.6761 28.0518 26.364 26.364C28.0518 24.6761 29 22.3869 29 20C29 17.6131 28.0518 15.3239 26.364 13.636C24.6761 11.9482 22.3869 11 20 11C17.6131 11 15.3239 11.9482 13.636 13.636C11.9482 15.3239 11 17.6131 11 20C11 22.3869 11.9482 24.6761 13.636 26.364C15.3239 28.0518 17.6131 29 20 29V29ZM27.875 20C27.875 22.0886 27.0453 24.0916 25.5685 25.5685C24.0916 27.0453 22.0886 27.875 20 27.875C17.9114 27.875 15.9084 27.0453 14.4315 25.5685C12.9547 24.0916 12.125 22.0886 12.125 20C12.125 17.9114 12.9547 15.9084 14.4315 14.4315C15.9084 12.9547 17.9114 12.125 20 12.125C22.0886 12.125 24.0916 12.9547 25.5685 14.4315C27.0453 15.9084 27.875 17.9114 27.875 20V20Z" fill="#DEE1EC" fill-opacity="0.7"/>
</svg>
