<svg width="39" height="40" viewBox="0 0 39 40" fill="none" xmlns="http://www.w3.org/2000/svg">
<path d="M18.5524 17.7361C18.6704 17.619 18.6706 17.4283 18.553 17.3109L14.4459 13.2117C14.3287 13.0948 14.1389 13.0948 14.0218 13.2119L13.2121 14.0216C13.095 14.1388 13.095 14.3287 13.2121 14.4459L17.3124 18.5461C17.4292 18.663 17.6186 18.6633 17.7359 18.5469L18.5524 17.7361ZM22.9118 13C22.6445 13 22.5106 13.3231 22.6996 13.5121L23.7605 14.573C23.8776 14.6901 23.8776 14.88 23.7605 14.9971L13.212 25.5541C13.0949 25.6713 13.0949 25.8612 13.212 25.9783L14.0217 26.788C14.1388 26.9051 14.3287 26.9051 14.4459 26.788L25.0029 16.2395C25.12 16.1224 25.3099 16.1224 25.427 16.2395L26.4879 17.3004C26.6769 17.4894 27 17.3555 27 17.0882V13.3C27 13.1343 26.8657 13 26.7 13H22.9118ZM22.6884 21.4459C22.5712 21.3287 22.3813 21.3287 22.2641 21.4459L21.4546 22.2554C21.3375 22.3725 21.3375 22.5625 21.4546 22.6796L23.7691 24.9941C23.8863 25.1113 23.8863 25.3012 23.7691 25.4184L22.6996 26.4879C22.5106 26.6769 22.6445 27 22.9118 27H26.7C26.8657 27 27 26.8657 27 26.7V22.9118C27 22.6445 26.6769 22.5106 26.4879 22.6996L25.4271 23.7604C25.31 23.8775 25.12 23.8775 25.0029 23.7604L22.6884 21.4459Z" fill="url(#paint0_linear)"/>
<defs>
<linearGradient id="paint0_linear" x1="13.7832" y1="20.4118" x2="26.6573" y2="20.4118" gradientUnits="userSpaceOnUse">
<stop stop-color="#009EFD"/>
<stop offset="1" stop-color="#2AF598" stop-opacity="0.9"/>
</linearGradient>
</defs>
</svg>
