<svg width="40" height="40" viewBox="0 0 40 40" fill="none" xmlns="http://www.w3.org/2000/svg">
<path d="M26.4054 19.146C26.0193 18.2669 25.4581 17.4779 24.7568 16.8283L24.1781 16.2911C24.1585 16.2734 24.1348 16.2608 24.1092 16.2545C24.0837 16.2481 24.0569 16.2483 24.0314 16.2548C24.0059 16.2614 23.9823 16.2742 23.9628 16.2921C23.9433 16.31 23.9285 16.3325 23.9196 16.3575L23.6611 17.108C23.5 17.5787 23.2037 18.0596 22.7841 18.5323C22.7562 18.5625 22.7244 18.5706 22.7025 18.5726C22.6807 18.5746 22.6469 18.5706 22.617 18.5424C22.5892 18.5183 22.5753 18.482 22.5773 18.4458C22.6508 17.2347 22.2929 15.8687 21.5094 14.3819C20.8611 13.1466 19.9602 12.1829 18.8347 11.511L18.0133 11.0221C17.906 10.9577 17.7687 11.0422 17.7747 11.169L17.8185 12.1347C17.8483 12.7945 17.7727 13.378 17.5937 13.8628C17.375 14.4563 17.0608 15.0076 16.6591 15.5025C16.3795 15.8464 16.0627 16.1576 15.7145 16.43C14.8759 17.0821 14.194 17.9178 13.7199 18.8744C13.2469 19.8393 13.0006 20.9016 13 21.9786C13 22.9282 13.1849 23.8477 13.5509 24.7148C13.9042 25.5496 14.414 26.3073 15.0523 26.9459C15.6966 27.5897 16.4443 28.0967 17.2776 28.4488C18.1406 28.8149 19.0554 29 20 29C20.9446 29 21.8594 28.8149 22.7224 28.4508C23.5536 28.1008 24.3095 27.5903 24.9477 26.9479C25.592 26.3041 26.0971 25.5517 26.4491 24.7168C26.8145 23.852 27.0019 22.9211 27 21.9807C27 20.9989 26.8011 20.0453 26.4054 19.146V19.146ZM23.9971 25.9722C22.9293 27.0425 21.5114 27.6299 20 27.6299C18.4886 27.6299 17.0707 27.0425 16.0028 25.9722C14.9389 24.9039 14.3523 23.4875 14.3523 21.9807C14.3523 21.1055 14.5472 20.2666 14.931 19.486C15.3048 18.7235 15.8616 18.0415 16.5378 17.5164C16.969 17.1828 17.3601 16.7993 17.7031 16.3736C18.2003 15.76 18.5901 15.076 18.8605 14.3417C18.9714 14.0388 19.0521 13.7253 19.1011 13.4061C19.5804 13.8528 19.9821 14.392 20.3182 15.0237C20.9824 16.2831 21.2886 17.4037 21.229 18.3573C21.2147 18.5819 21.251 18.8069 21.335 19.0152C21.4191 19.2236 21.5487 19.41 21.7142 19.5604C21.8576 19.6915 22.0253 19.7924 22.2076 19.8573C22.3899 19.9223 22.5832 19.9499 22.7761 19.9386C23.1679 19.9185 23.5278 19.7435 23.7903 19.4477C24.0548 19.148 24.2835 18.8422 24.4744 18.5303C24.7528 18.8905 24.9855 19.2828 25.1704 19.7053C25.4866 20.4255 25.6477 21.192 25.6477 21.9807C25.6477 23.4875 25.0611 24.9059 23.9971 25.9722Z" fill="#DEE1EC" fill-opacity="0.7"/>
</svg>
